<mxfile host="app.diagrams.net" modified="2024-05-01T14:45:26.294Z" agent="Mozilla/5.0 (Windows NT 10.0; Win64; x64; rv:125.0) Gecko/20100101 Firefox/125.0" etag="Y1kR-y1bIVT3IfmL8iob" version="24.1.0" type="google">
  <diagram name="Page-1" id="-YTnVjoACrh0O2DjWvHc">
    <mxGraphModel grid="0" page="1" gridSize="10" guides="1" tooltips="1" connect="1" arrows="1" fold="1" pageScale="1" pageWidth="827" pageHeight="1169" background="#FFFFFF" math="0" shadow="0">
      <root>
        <mxCell id="0" />
        <mxCell id="1" parent="0" />
        <mxCell id="fpGeL_W6awyr53Q22owi-8" style="edgeStyle=orthogonalEdgeStyle;rounded=0;orthogonalLoop=1;jettySize=auto;html=1;entryX=0.5;entryY=0;entryDx=0;entryDy=0;strokeWidth=2;strokeColor=#000000;endArrow=block;endFill=1;" edge="1" parent="1" source="fpGeL_W6awyr53Q22owi-1" target="fpGeL_W6awyr53Q22owi-7">
          <mxGeometry relative="1" as="geometry" />
        </mxCell>
        <mxCell id="fpGeL_W6awyr53Q22owi-1" value="" style="shape=image;verticalLabelPosition=bottom;labelBackgroundColor=default;verticalAlign=top;aspect=fixed;imageAspect=0;image=data:image/png,iVBORw0KGgoAAAANSUhEUgAAAY0AAAKdCAIAAABQ+6KAAAAABmJLR0QA/wD/AP+gvaeTAAAgAElEQVR4nOzdeVwT19o48DMhewj7WhTZBMT1olZBcbn08lOoIIJKq21prxatFnGliCwiUCyKXCzWj4r0Vq24wIVWRamlqFyR17qBWC0giGhlUVnDEmB+f5y386ZAYiAJGfH5/uUsOXMyTB5neeY8BEmSCAAAaIyh7g4AAMArQJwCANAdxCkAAN1BnAIA0B1TcqKgoCAhIUFdXQEAAMzJyWnDhg3U5F/Opx4/fnz69GlV9+D06dPV1dWq3gqgj+rq6iE4rtQFjmelu3btWkFBgeQcZt+VTp06pdJOEASxfv36JUuWqHQrgD5Onjy5dOlSVR9X6gLHs9ItXry41xy4PwUAoDuIUwAAuoM4BQCgO4hTAAC6gzgFAKC7YRunpk6dqqGhMWnSpEG3sGLFCqFQSBDE7du3ZS86d+6ctrb2jz/+qFCPX6Wnp2fPnj3Ozs5yrj80vQJgCAzbOHX9+vW5c+cq0sKhQ4cOHjwoz6IhGHOitLR01qxZGzZsEIlEcn4ERsIAw0Y/+VPDCUEQQ7AVDw+PxsZG1bV/586dqKio1atXt7a2yh99VN2rtrY2V1fXq1evqm4TAGDD9nwKY7FYinxcRphTSgQkSfLUqVMHDhyQvdrEiRPT09OXLVvG4XAU36iypKSk1NbWqrsX4I1A0zjV3d0dHh5ubm7O4/EmTJhw4sQJhFBiYqJAIGAwGJMnTzY2NmaxWAKBwNHR0cXFZeTIkVwuV0dHZ8uWLZLtlJWV2dvbCwQCHo/n4uKSn58vo32EEEmS8fHxdnZ2HA5HW1t78+bNVFPSFuXn55ubmxME8fXXXyOE9u3bJxAI+Hx+VlbW/PnztbS0RowYcfz4cWq7sbGxdnZ2PB7PwMDA0tIyNjZWFanM8vcqKSmJy+UaGRmtWrXK1NSUy+U6OzsXFhYihAIDA9lstomJCW5zzZo1AoGAIIj6+vqgoKCNGzeWl5cTBGFjY6P0/gPwF6QE/HMlVQwhdOLECdnrbNq0icPhnD59+uXLl1u3bmUwGNevXydJMiIiAiFUWFjY2tpaX18/b948hNDZs2fr6upaW1sDAwMRQrdv38aNuLq6WllZVVRUiMXiu3fvTps2jcvl/v777zLaDw0NJQhi9+7dL1++FIlEycnJCKFbt27JXvT48WOE0N69e/F2Q0NDEUI///xzY2NjbW2ti4uLQCDo7OwkSTImJkZDQyMrK0skEt24ccPY2HjOnDny77pp06ZNnDhRzpXl71VAQIBAILh37157e3tJScnUqVOFQmFVVRVJksuWLTM2NqbajI+PRwjV1dWRJOnj42NtbS1PT4bmuFIXeY5nMCC+vr6+vr6Sc+h4PtXe3r5v3z5vb28fHx8dHZ1t27axWKzU1FRqBQcHBz6fr6+v/9577yGEzM3NDQwM+Hz+8uXLEUL379+n1hQKhRYWFkwmc+zYsQcPHmxvbz9w4IC09tva2vbs2fPOO+9s2LBBR0eHx+Pp6enhdmQsksbZ2VlLS8vQ0NDPz6+1tbWqqgohlJmZOXnyZE9PTx6P5+jo6OXldfny5c7OTqXvwwH1CiHEZDLHjBnD4XAcHBz27dvX3NwsucMBUC86xqkHDx6IRKJx48bhSR6PZ2JiIhl9KGw2GyHU1dWFJ/HdKLFY3G+z48eP19bWLioqktZ+WVmZSCRydXXt+1kZi14JdxL3qr29nZS4Ed7d3c1isTQ0NAbRrIIke9XLlClT+Hx+vzscALWgY5xqbW1FCG3bto3406NHj+R/Hi8Di8USi8XS2sejcxgaGvb9oIxFA+Lu7n7jxo2srKy2trZff/01MzPz3XffVUucko3D4dTV1am3D8Mp/2vVqlXUwYbP+ikXL14MCQlJT0+3srLCK3zwwQeSK7i5uQmFQg0NjbFjx968eXMoux0VFeXg4KClpcXhcGxsbLZs2dLS0kItzc/PnzFjBp/PNzU1DQ4O7ujoQAj98MMPO3fu7O7uplbLzMykvruBgcHgekLHOIXDwZ49eyQvUHuNRzMIXV1dL168MDc3l9Y+l8tFCOHd3YuMRQMSGRn597//3d/fX0tLa9GiRUuWLJGWoqVGYrG4oaFhxIgR6u0GObzyv/T09LKzsx88eJCSkkLNjIiISEpK2rp1q4+Pz8OHD62trfX19Y8ePXr27FlqnZycnFOnTi1YsKCkpMTR0XEo+5ybm7t27drKysr6+vrY2NjExERqxJWSkhI3NzdXV9e6urqMjIzDhw+vXr0aIeTp6cnlcl1dXRsaGvCaXl5e1dXVly9fdnd3H3RP6Bin8MO7vlngCvrll196enocHR2ltT9u3DgGg3Hp0qW+n5WxaEBKSkrKy8vr6urEYnFVVdW+fft0dXUVbFPp8vLySJKcPn06QojJZEq7jlY1nP+1YMECFbXf1tYmf3K/4ng83rx582xtbankkri4uLS0tJMnTwqFQmq1pKQkBoMREBCg0tw3OWlqagYEBOjp6QmFwiVLlnh7e58/fx4/n9mxY4eJicn27dsFAoGTk1NwcPC3336L7xWsW7du4sSJ7u7u+IYMQRBmZmYuLi6jR48edE/oGKe4XO7HH398/Pjxffv2NTU1dXd3V1dX//HHH4NoqrOzs7Gxsaur6+bNm4GBgaNGjfL395fWvqGhoa+v7+nTp1NSUpqamoqKiqjMJhmLBmTt2rXm5uaSJ8800dPT8/Lly66urqKioqCgIHNzc39/f4SQjY3NixcvMjMzxWJxXV3do0ePqI/o6ek9ffq0srKyublZXbFMEerN/yorKwsLC9u+fTs+Vac4OzsHBQU9efJk06ZN6uob5cyZM5I3JfBVm0gk6urqOnv27OzZs6kswvnz55MkmZWVhScjIyNv376dmJiotK5IXvvQJy+ho6MjODjY3NycyWQaGhr6+PiUlJQkJiby+XyEkIWFxZUrV+Li4rS1tRFCxsbGx44dS0tLMzY2Rgjp6uoeP36cJMnU1NS5c+caGRkxmUz8cPDRo0cy2idJsrm5eeXKlfr6+pqamjNnzgwPD0cIjRgx4s6dO9IWrVy5EmcY8fl8T0/P5ORk3MnRo0eXl5cfOHBAS0sLITRq1Kjff/89NzdXX1+f2vksFmvMmDHp6emy90ZBQcGMGTNMTU3xp0xMTJydnS9duiTjI3v37pW/VwEBASwWy8zMjMlkamlpLVy4sLy8HLfz/PnzuXPncrlcS0vLzz//HGeN2djYVFVV3bx5c9SoUTweb+bMmc+ePZPRmUEcV1euXBk5ciT6M68C95/H42VmZs6bN08oFJqZmX3//fckSf7rX//icDiGhoYBAQEmJiYcDsfJyenatWskSX7++ecsFovKq/jss8/wTqirq1u3bh1+koAQwtkV2dnZQqEwOjp6QP0k5TueAwICzMzMJOd8/vnnGhoa+AUDirW1dUVFhUgksrW1RQj99NNPeH52draXlxf+d09Pz+7du+3t7dlsto6OjpeX12+//SZ7F5Ek2dXVFRYWhq8kxo8fn5aWNtCvSZKkl5cXj8fr6Oh48OABQig8PJxa1NbWhhB6//33qTnz5s0zMzPr6emh5qxbt05fX1+eDfXNS6BpnBqukpOTg4KCqMmOjo7169dzOByRSKTGXuFze9W1P7jjaojzv86cOSMUCqOiogbaz8HFKSsrKwcHh16r4ThFkuTVq1cZDIaFhUVLSwv51zgVHh7OZrOPHDnS0NBQVFTk6OhoYGCA/5+QsYukJQzKr7W1VSgUBgYGkiSJb4DEx8dLrsDj8VxdXanJkJAQ9GeCIaZInKLjdd9w9ezZs8DAwH/+85/UHDabbW5uLhaL1X7dJPmAhs5Ul//l4eHR1NQUFhamgl731traWlFRYW1tLW0FJyen9evXV1ZWfvHFF5Lz29raEhISFi1atHz5cm1t7fHjx+/fv7++vl7yLkTfXfTKhER5xMbGmpqaRkdHoz8fKPV6Ts1isfBZFYbvRhUXFw9oK9JAnBo6PB6PxWKlpKTU1NSIxeKnT58eOnQoPDx80qRJ2trahBR+fn79tnb//n1pH5HxqWHjtc7/qq2tJUkSX4RKEx0dbWdnl5ycTL3shRAqKSlpaWmZMmUKNWfq1KlsNhu/59QLtYvkT0iUJiMj4+TJkxcuXMC3/PE9NSpvEevs7OTxeNQk/nY1NTXyb0UGiFNDR1tbOycn5+7du7a2tjwez8HBITU1NS4urrCwUMY5cFpaWr+t2dvbD+JTfW3dujU1NbWxsdHS0nLYVK+iQ/6XDO3t7Qgh2W+Vc7nc1NRUgiA++eQT6jwFP+zX1NSUXFNHR6e5uVlGUwomJKalpcXFxeXl5VlYWOA5+NZnU1MTtY5IJGpvb6duoSKEcMzC31Rxw3xcF7pxcXH56aef1N2Lv4iNjY2NjVV3L5SJJvlfMuDf8CuvtXGtzV27du3YscPc3BwhpKOjgxDqFZVe+WWphMGgoKCBdnXv3r0XLlzIzc2VDI6WlpZCoVDy4W9ZWRlCaMKECdQc/DaY5BmWIuB8Cgw3NMn/ksHIyIggCHkypHbs2GFvb3/r1i08OW7cOE1NzV9//ZVaobCwsLOzc/LkyTIaGVxCIkmSwcHBxcXFmZmZvc7gmEymu7v75cuXe3p68Jzs7GyCIDw9Pal18LfDj+AVB3EKDAeK539lZ2draWnFxMQMQW/5fL6VlZU8VZTx1R91x5rL5W7cuDEjI+Po0aNNTU3FxcWrV682NTUNCAiQ3Yi0hEQ/Pz9jY+N+X8e5d+/eV199dfDgQRaLJXnrc9euXQihsLCwmpqaiIiI1tbWgoKC+Ph4f39/Ozs76uP4240fP34gO0Y6yZsakJcAVGEQx9XQ53+dO3duKPOnAgMDWSwWlY+SkZGBH/8ZGBisXbu218c3b94smT8VHx8/evRoFoulq6vr7e394MED8s/8KWm7SFrCoLe3N/prJhRF2qM6Kh3h0qVLb7/9NofDMTU13bx5M37HnuLh4QH5U+B1ourjStX5X7INLk6VlpYymcwjR46osmuv1t3d7eLikpKSotxm6+vruVzurl27JGdC/hR409E//6utre3ChQulpaX4BrONjU1UVFRUVJQaX6Lq7u7OzMxsbm5WehZLZGTkpEmT8LiVJEk+ffo0Pz8f32sfHPU871u6dOnSpUvVsmkA1OLFixd4+Nlly5YdPXoUIRQSEtLS0uLn53fs2DH8BtgQy8vLS09Pz87Olp3JNVAJCQm3b98+d+4cHg8uKysLX10ihCRfGhsQ9cSpoKAgJycntWwaDL2CggJlvpL6Vzj/q7Oz09LSMj4+3tfXV0UbUsT+/fv379/fd35MTExOTs6XX34ZFxc39L1ydXUd3NCPMmRlZXV0dOTl5VH3/hcuXEgqPESPeuKUk5OTKooXANpSXZx63fO/3Nzc3Nzc1N0LpfHy8vLy8lJ6s3B/CgBAdxCnAAB0B3EKAEB3EKcAAHQHcQoAQHcDjlN+fn4yhj0iCOLMmTOq6KgSXbt2bcyYMQwGgyAIY2NjPPSXSklWPTIxMelVGQkAINtgzqdycnIaGhrEYjF+ldHT07Ozs7O1tbW2tnblypXK7qHyTZ8+/bfffsMPgx88eLBt2zZVb5GqeqStrf3s2TOc5gcAkNOA4xRBEDNmzNDW1mYymdQcFovF5/MNDQ1ljy/xRhnisksADGMDzvM8fvy4jKWyx5d4o6i37BIAwwncR0cIoX379gkEAj6fn5WVNX/+fC0trREjRuCInJSUxOVyjYyMVq1aZWpqyuVynZ2d8XDUgYGBbDYbDz+CEFqzZo1AICAIor6+PigoaOPGjeXl5QRB2NjYyNOHK1euODg4aGtr48pFFy5cQAitWLEC39WytrbGg6V9/PHHfD5fW1v7hx9+6O7uDg8PNzc35/F4EyZMwMMSfPXVV3w+XygU1tbWbty40czMDFcxAuA1Jjl4wkDH38D3p6iRceSE6DGuy//7f/8PIfTy5Us8qeqySyRJ4vtT0vpz6tSpyMjIFy9ePH/+fPr06dQIGD4+PhoaGk+ePKHWfP/993/44QdSerEj/F3WrVu3d+/eRYsW4fpuajQ04wWpC02O5+Gk77guMD76Xzg7O+NaGn5+fleuXKmqqsKjl+GySwghXHZp6tSpqampuNSosuC/Df63p6fn1q1b6+rqDA0NV69enZ6enpqaiqNPU1PT9evXv/vuO8liRwihbdu27d69OzU1lSpGEhcXx+Vy165dq8ROKuLkyZPq7oKqFBQUqLsLw0p1dXWvEd8hTvVPvWWX8IAYeEylv//977a2tocPH966dStBEGlpaX5+fhoaGnfv3lWw2NEQG8Yj+SQmJqruRes3U69xL+D+1GCoouzS2bNn58yZY2hoyOFwtmzZQs0nCGLVqlUPHz78+eefEULfffcdrlSqYLGjoaeuiwhVQ3Ddp2x9B+eBODVgyi27dPny5T179lRVVXl7e5uYmBQWFjY2Nu7cuVNyHX9/fy6Xe+jQoQcPHmhpaY0aNQpJFDuS/APDBQgYluC6b8CUW3bpxo0bAoGguLhYLBZ/9tlnVlZWCCGCICTX0dXVXbp0aVpamlAopDJpB1fsCIDXEZxPyUXxskt92xSLxTU1NXl5eQKBAFeRvHjxYnt7e2lpad8y3KtXr+7o6Dhz5syCBQvwHBnFjgAYbiSvGuR/ftzU1DRr1iw9PT2EEIPBsLGxiYmJkfPiE6n7ev7atWtjx45lMBgIIRMTk5iYGFWXXfrmm2/wc8N+ZWRkkCQZHBysp6eno6OzePHir7/+GiFkbW2Nsx+wv/3tbyEhIZJfpN9iRzt37sRFaEeOHKn2ciYY5CWAAYG6WIOh3rJLFHd394cPH6q7F4MBcQoMCNTFGiR1lV2iLhiLiorwWZtaugGAesF9dFoLDg5evXo1SZIff/zxkSNH1N0dANQDzqdeAZddamxstLS0PH369BBvnc/n29vbv/POO5GRkQ4ODkO8dQBoAuLUK8TGxnZ0dJAkWVFRMfS14aKjo7u7u6uqqqjHfAC8gSBOAQDoDuIUAIDuIE4BAOgO4hQAgO7Uk5cAr8u+UeDPDRQlmfQ5ZPno4A2k6uNKXZAc+eiSdQOWLVsmueinn3764osvTp8+TSXxLl++XHKFf/zjH5qamgwGw8HB4caNG8r/AtJt3759zJgxQqGQzWZbW1tv3ry5ubmZWnrlyhVnZ2c88NmWLVva29tJkszKyoqLi+vq6qJW+89//kN9d2qUWtngvRmgBvDeDH71Kjs7+8GDB/j3jIWHhy9YsKCpqQlPWltb6+vrI4TOnDkj+fHs7OyBju6tFLNnz05OTn7+/HlTU9OJEydYLNa8efPwort37/J4vLCwsJaWlqtXrxoYGHz88cd4UWJi4uzZs6kRvXt6eqqrqy9fvuzu7j7oOAX3p8DrTSn1x4agiBmPx5s3b56trS2Hw8Fz4uLi0tLSTp48KRQKqdWSkpIYDEZAQEBjY6NK+yMPTU1NHGGFQuGSJUu8vb3Pnz//+PFjhNCOHTtMTEy2b98uEAicnJyCg4O//fZbPJzsunXrJk6c6O7u3tXVhRAiCMLMzMzFxWX06NGD7gnEKfB6U0r9saEvYlZWVhYWFrZ9+3Y8Hj/F2dk5KCjoyZMnmzZtGsr+9OvMmTMaGhrUpIGBAUJIJBJ1dXWdPXt29uzZ1EBp8+fPJ0kyKysLT0ZGRt6+fVuJYzFDnAJ0QZJkQkLCmDFjOByOrq7uwoUL8f/P8tcfU1YRs/Pnz2tpacXExKjuyyYlJZEk6enp2XdRdHS0ra3toUOHLl682HeptL0ko7YbQqjfEmoD9eTJEx6PZ2lp+fDhw5aWFjxoGoaHLSoqKsKTurq6s2fPTkxMJJV1P1ryIhDuTwFVkPO4Cg8PZ7PZR44caWhoKCoqcnR0NDAwePbsGTmQ+mNKKWJ25swZoVAYFRUlz7eT53gOCAgwMzOTnGNlZeXg4NBrNWtr64qKCpIkr169ymAwLCwsWlpayL/en5Kxl2TUdpNWQk1+ra2tQqEwMDCQJMlLly4hhOLj4yVX4PF4rq6u1GRISAhC6NatW9ScdevWwf0p8Hpra2tLSEhYtGjR8uXLtbW1x48fv3///vr6+gMHDgy0KVzEjMPh4CJmzc3NqampA2rBw8OjqakpLCxsoJuWU2tra0VFhYyhE52cnNavX19ZWfnFF19IzpdnLzk7O2tpaRkaGvr5+bW2tlZVVUmWUNPR0dm2bRuLxRroPomNjTU1NY2OjkYIdXR0IIQkLwkRQiwWq62tjZrEd6OKi4sHtBVpIE4BWigpKWlpaaGKDyKEpk6dymaz+w7BPCBDUMRsEGpra0mSxEPIShMdHW1nZ5ecnJyfn0/NHNBeomq7PXjwQMESahkZGSdPnrxw4QK+5Y/vqeHb5JTOzk48kCyGv11NTY38W5EB4pRcOjo61q1bZ2Jiwufz33nnHSMjI4Ig9u/fr6z2d+7caW9vz+PxBAKBvb19WFhYU1MTXhQVFeXg4KClpcXhcGxsbLZs2dLS0qKs7dJHQ0MDQkhTU1Nypo6OTnNzs4Itq6KImYLa29sRQtSDv35xudzU1FSCID755BPqPGVwe0nBEmppaWlxcXF5eXkWFhZ4Dr7NRx2iCCGRSNTe3m5qakrNwTELf1PFQZySy+7du8+fP3///v3ExMRVq1ZdvXpVue1fuXJl5cqVVVVVNTU1O3bs2LlzJzWGTG5u7tq1aysrK+vr62NjYxMTExcvXqzcrdOBjo4OQqjX703x+mPKLWKmLPg3/MpBYp2cnDZs2FBaWrpjxw48Z3B7SZESanv37j169Ghubu5bb71FzbS0tBQKhZJVS8rKyhBCEyZMoOZ0dnZS31RxEKfkkpmZOWXKFB0dnU8//VQpo1D1Sthhs9lr1qwxNDTU1NRcvHjxwoULf/rpJ1w8RkYOy3Aybtw4TU3NX3/9lZpTWFjY2dk5efJkpED9MeUWMVMWfD4uT4bUjh077O3tb926hSdl7yVpBldCjSTJ4ODg4uLizMzMXmdwTCbT3d398uXLPT09eE52djZBEJKPL/G3MzY2HtBGpYE4JZfq6mpcS11ZeiXsZGRkSObRmJmZIYTw9Z20HBYldoYOuFzuxo0bMzIyjh492tTUVFxcvHr1alNTU/zGyYDqjylexCw7O1uleQl8Pt/Kyqq6uvqVa+KrP+oAkL2XZDQirYSan5+fsbHxzZs3+37q3r17X3311cGDB1ksFiFh165dCKGwsLCampqIiIjW1taCgoL4+Hh/f387Ozvq4/jbjR8/fiA7RjrJU0HIS+grJydH8rmMQCAgSbK0tBQh9M033+B1enp6du/ebW9vz2azdXR0vLy8fvvtN7zo8uXLY8aMwXeXxo0bd/78eZIk161bh+9xIoQkH4dTPDw8dHR08DiivXh5efF4vH4X0Zacx1VPT098fPzo0aNZLJaurq63t/eDBw/wIjnrjz179kzxImbPnj07d+6cUCiMjo6W59vJczz3zUsIDAxksVgikQhPZmRk4MPMwMBg7dq1vT6+efNmKi9B2l6SXdut3xJqJEl6e3sjhMLDw/v2WdqjOiod4dKlS2+//TaHwzE1Nd28ebPk+0AkSXp4eJiZmfX09FBzFMlLgDglF2Nj448++oia7BWnZKS0nDp1KjIy8sWLF8+fP58+fTr1d+qVsIN1dnZWV1fv3buXw+H0W3pPMoflNTKU7/cNfRGzwcWp0tJSJpOp9gKL3d3dLi4uKSkpym22vr6ey+Xu2rVLcibkT6mT7JQWX1/fiIgIXV1dPT09T0/P58+fy3j2NHLkyBEjRkRGRn711VdLly7tu4JkDguQRl1FzGRra2u7cOFCaWkpvsFsY2MTFRUVFRWlxqe33d3dmZmZzc3Nfn5+ym05MjJy0qRJgYGBCCGSJJ8+fZqfn4/vtQ8OxClFyZ/Sgu9wyfgVPX78uLa29vvvv//3v//9t7/9rdcbZ71yWMDr5cWLF/g95E8++QTPCQkJWbx4sZ+fn7peOc7Ly0tPT8/OzpadyTVQCQkJt2/fPnfuHD7gs7Ky8HvIZ8+eHXSbEKcUJTul5ezZs3PmzDE0NORwOFu2bJHdFIvFMjQ0dHNzS0tLKykpiY2NpRb1zWEBfam3iJkM+/fvpy5hjh49Ss2PiYkJDAz88ssv1dIrV1fXY8eOUe88KkVWVlZHR0deXp6uri6es3DhQsnrwcE1C3FKUTJSWqqqqry9vU1MTAoLCxsbG3fu3ClnmzY2NhoaGiUlJXiy3xwW0Jd6i5gNjpubW1xcnLp7oTReXl4hISG9XqlRHMQpRclIaSkuLhaLxZ999pmVlRWXy6UGwejl+fPn77//vuSc0tLS7u7ukSNHktJzWAB4c0CcUpSMlBY88MXFixfb29tLS0sl71hJJuyw2eycnJzc3NympiaxWHzr1q2PPvpIIBBs2LBBdg4LAG8IiFOv8OjRI0dHx5qammPHjk2ePDk9PT0hIWHmzJkIoU2bNvn4+CCEIiIiYmNjo6KiDAwMZs+ebWFhkZeXJxAIxo8fHxwcnJycbGpqGhoaOmfOHITQzJkzHz9+vHr1aiMjIwcHB3d3d5FINGPGjBUrVpiZmQmFwsWLF1tYWFy7dm3cuHEkDCcPAEKE5C/h5MmTS5cuVfVvgyCIEydOLFmyRKVbAfQxNMeVusDxrHT4DdZTp05Rc+B8CgBAdxCnAAB0B3EKAEB3EKcAAHQHcQoAQHcQpwAAdAdxCgBAdxCnAAB0x+w7awjKBOzZs0cyiQsMb3gI2mFZfgKD41m5rl27hoe0p/wlH72goCAhIWHIewWGlWvXro0ePVpfX1/dHQGvMVxrh5okhuvbDEBd4D0SoHRwfwoAQHcQpwAAdAdxCgBAdxCnAAB0B3EKAEB3EKcAAHQHcQoAQHcQpwAAdAdxCgBAdxCnAAB0B3EKAAqdE9MAACAASURBVEB3EKcAAHQHcQoAQHcQpwAAdAdxCgBAdxCnAAB0B3EKAEB3EKcAAHQHcQoAQHcQpwAAdAdxCgBAdxCnAAB0B3EKAEB3EKcAAHQHcQoAQHcQpwAAdAdxCgBAdxCnAAB0B3EKAEB3EKcAAHQHcQoAQHcQpwAAdAdxCgBAdwRJkuruA3i9ffDBB7dv36YmHz9+rK+vz+fz8SSLxfrxxx/NzMzU1DswHDDV3QHw2rOzszt69KjknMbGRurfY8aMgSAFFATXfUBR77//PkEQ/S5isVj+/v5D2x0wDMF1H1CCyZMn3759u6enp9d8giAePnxoYWGhjk6B4QPOp4ASfPjhhwxG72OJIIhp06ZBkAKKgzgFlOC9997rezLFYDA+/PBDtfQHDDMQp4ASGBkZzZo1S0NDo9d8Hx8ftfQHDDMQp4ByfPDBB5KTGhoarq6uRkZG6uoPGE4gTgHl8PX1lbxFRZLk8uXL1dgfMJxAnALKoaWlNX/+fCbzfzPymEyml5eXersEhg2IU0Bpli9f3t3djRBiMpmenp5aWlrq7hEYJiBOAaVZsGABfl2mu7t72bJl6u4OGD4gTgGl4XK5ixYtQggJBIJ58+apuztg+Bj8+30FBQWPHz9WYlfAMDBixAiE0JQpU3744Qd19wXQzpIlSwb5SXKwfH19lfoVAADD3KCjjULXfb6+voPesDxOnDihyHcDA4IQOnHihOLtREVFdXV1Kd6OEvn6+qr6WAWy4d/yoMH9KaBkISEhfRPTAVAExCmgZFQKFQDKAnEKAEB3EKcAAHQHcQoAQHcQpwAAdAdxCiGEpk6dqqGhMWnSpEG3sGLFCqFQSBCEZOWVfhedO3dOW1v7xx9/VKjHr9LT07Nnzx5nZ2eVbgWAoQFxCiGErl+/PnfuXEVaOHTo0MGDB+VZRKp+QPrS0tJZs2Zt2LBBJBKpelsADAF4hPx/pBVNUS4PDw/JslFKd+fOnaioqNWrV7e2tg5BTARgCMD51P9hsViKfFxGmFNKBCRJ8tSpUwcOHJC92sSJE9PT05ctW8bhcBTfKAB0MBziVHd3d3h4uLm5OY/HmzBhAs7QT0xMFAgEDAZj8uTJxsbGLBZLIBA4Ojq6uLiMHDmSy+Xq6Ohs2bJFsp2ysjJ7e3uBQMDj8VxcXPLz82W0jxAiSTI+Pt7Ozo7D4Whra2/evJlqStqi/Px8c3NzgiC+/vprhNC+ffsEAgGfz8/Kypo/f76WltaIESOOHz9ObTc2NtbOzo7H4xkYGFhaWsbGxg7+TU4AXl+DfmFnCN6ZkvP9vk2bNnE4nNOnT798+XLr1q0MBuP69eskSUZERCCECgsLW1tb6+vr8UgjZ8+eraura21tDQwMRAjdvn0bN+Lq6mplZVVRUSEWi+/evTtt2jQul/v777/LaD80NJQgiN27d798+VIkEiUnJyOEbt26JXsRHmRi7969eLuhoaEIoZ9//rmxsbG2ttbFxUUgEHR2dpIkGRMTo6GhkZWVJRKJbty4YWxsPGfOHPn33rRp0yZOnCj/+khJ7/fRELzfp3YKvqv72p9Ptbe379u3z9vb28fHR0dHZ9u2bSwWKzU1lVrBwcGBz+fr6+u/9957CCFzc3MDAwM+n49H775//z61plAotLCwYDKZY8eOPXjwYHt7+4EDB6S139bWtmfPnnfeeWfDhg06Ojo8Hk9PTw+3I2ORNM7OzlpaWoaGhn5+fq2trVVVVQihzMzMyZMne3p68ng8R0dHLy+vy5cvd3Z2Kn0fAkBzr32cevDggUgkGjduHJ7k8XgmJiaS0YfCZrMRQl1dXXgS340Si8X9Njt+/Hhtbe2ioiJp7ZeVlYlEIldX176flbHolXAnca/a29tJiRvh3d3dLBaLVq/4Dk2OBZ1dvHgxJCQkPT3dysqKIAiCIHrV3XFzcxMKhRoaGmPHjr158+ZQ9i0qKsrBwUFLS4vD4djY2GzZsqWlpYVamp+fP2PGDD6fb2pqGhwc3NHRgRD64Ycfdu7ciQePppXXPk61trYihLZt20b86dGjR0p5Hs9iscRisbT2q6urEUKGhoZ9Pyhj0YC4u7vfuHEjKyurra3t119/zczMfPfdd2kVp8g3+3liREREUlLS1q1bfXx8Hj58aG1tra+vf/To0bNnz1Lr5OTknDp1asGCBSUlJY6OjkPZvdzc3LVr11ZWVtbX18fGxiYmJi5evBgvKikpcXNzc3V1raury8jIOHz48OrVqxFCnp6eXC7X1dW1oaFhKLv6Sq99nMLhYM+ePZJXswUFBQo229XV9eLFC3Nzc2ntc7lchBD+X6gXGYsGJDIy8u9//7u/v7+WltaiRYuWLFkiLUVLXXCOxYIFC1TUfltbG21TVePi4tLS0k6ePCkUCqmZSUlJDAYjICBApaknctLU1AwICNDT0xMKhUuWLPH29j5//jy+Pbpjxw4TE5Pt27cLBAInJ6fg4OBvv/0WX4WsW7du4sSJ7u7u1JUHHbz2cQo/vOubBa6gX375paenx9HRUVr748aNYzAYly5d6vtZGYsGpKSkpLy8vK6uTiwWV1VV7du3T1dXV8E2Xy8pKSm1tbXq7kU/ysrKwsLCtm/fjv9Pojg7OwcFBT158mTTpk3q6hvlzJkzkmffBgYGCCGRSNTV1XX27NnZs2dT6TLz588nSTIrKwtPRkZG3r59OzExcej7LM1rH6e4XO7HH398/Pjxffv2NTU1dXd3V1dX//HHH4NoqrOzs7Gxsaur6+bNm4GBgaNGjfL395fWvqGhoa+v7+nTp1NSUpqamoqKiqjMJhmLBmTt2rXm5uaS9xRoRf4ci6SkJC6Xa2RktGrVKlNTUy6X6+zsXFhYiBAKDAxks9kmJia4zTVr1ggEAoIg6uvrg4KCNm7cWF5eThCEjY0NQuj8+fNaWloxMTHq+9L/KykpiSRJT0/Pvouio6NtbW0PHTp08eLFvktJkkxISBgzZgyHw9HV1V24cCE+i3llhkq/mTED8uTJEx6PZ2lp+fDhw5aWFnNzc2qRtbU1QqioqAhP6urqzp49OzExkUbX9YN+UkifvISOjo7g4GBzc3Mmk2loaOjj41NSUpKYmIhrNFlYWFy5ciUuLk5bWxshZGxsfOzYsbS0NGNjY4SQrq7u8ePHSZJMTU2dO3eukZERk8nEDwcfPXoko32SJJubm1euXKmvr6+pqTlz5szw8HCE0IgRI+7cuSNt0cqVK/Fvks/ne3p6Jicn406OHj26vLz8wIEDuObdqFGjfv/999zcXH19feovxWKxxowZk56eLntvFBQUzJgxw9TUFH/KxMTE2dn50qVLr9yNaOB5CfLnWAQEBAgEgnv37rW3t5eUlEydOlUoFFZVVZEkuWzZMmNjY6rN+Ph4hFBdXR1Jkj4+PtbW1tSiM2fOCIXCqKioAXWSVMGxamVl5eDg0GumtbV1RUUFSZJXr15lMBgWFhYtLS0kSWZnZ3t5eeF1wsPD2Wz2kSNHGhoaioqKHB0dDQwMnj17Rsrce9IyY+TX2toqFAoDAwNJksRn+vHx8ZIr8Hg8V1dXajIkJAT9mUmjFArmJQyHODVcJScnBwUFUZMdHR3r16/ncDgikUgVm1NWnGpra8OTOGusrKyMJMmAgABtbW3qg9evX0cIbd++nRxInBo05R6rLS0tBEEsWLCg13wqTpEkuXHjRoTQ2rVrSYk4JRKJNDU1/fz8qI/8z//8D0IIR15pe6+trY3P51OfEolEHA7ns88+G1CfQ0NDbW1tm5qaSJLMyclBCCUkJEiuoKWl5ezsTE0ePnwYIfTdd98NaCsyvOn5U8PVs2fPAgMD//nPf1Jz2Gy2ubm5WCyWlktBN5I5Fr1MmTKFz+f3mz5Cf7W1tSRJ4hNhaaKjo+3s7JKTk6m3GhBCJSUlLS0tU6ZMoeZMnTqVzWbjS+BeqL0nf+aNNBkZGSdPnrxw4QK+5Y/vqfW6Td7Z2cnj8ahJ/O1qamrk34pKQZyiKR6Px2KxUlJSampqxGLx06dPDx06FB4ePmnSJG1tbUIKPz8/dXdcXhwOp66uTt29GIz29naEkOzXJ7lcbmpqKkEQn3zySVtbG56JH/ZrampKrqmjo9Pc3CyjKQUzb9LS0uLi4vLy8iwsLPAcfOehqamJWkckErW3t1P3ChBCOGbhb0oHEKdoSltbOycn5+7du7a2tjwez8HBITU1NS4urrCwUMbpcVpamro7LhexWNzQ0ICLkr528G/4lcmQTk5OGzZsKC0t3bFjB56jo6ODEOoVlV65HxTJvNm7d+/Ro0dzc3PfeustaqalpaVQKHz06BE1p6ysDCE0YcIEag5+7UHyDEu9YFwX+nJxcfnpp5/U3QuVyMvLI0ly+vTpCCEmk/m6XMliRkZGBEHIkyG1Y8eOM2fO3Lp1Cz9cGzdunKam5q+//kqtUFhY2NnZOXnyZBmNDC7zhiTJL7744uXLl5mZmb0qADGZTHd398uXL/f09DAYDIRQdnY2QRCSjy/xt8PPmugAzqfAEOnp6Xn58mVXV1dRUVFQUJC5ubm/vz9CyMbG5sWLF5mZmWKxuK6uTvL/eT09vadPn1ZWVjY3N4vF4uzsbDrkJfD5fCsrK/zWgWz46o9KYuJyuRs3bszIyDh69GhTU1NxcfHq1atNTU0DAgJkNyIt88bPz8/Y2Ljf13Hu3bv31VdfHTx4kMViSd4Z2LVrF0IoLCyspqYmIiKitbW1oKAgPj7e39/fzs6O+jj+duPHjx/IjlGlQd+Bh+d9wwwa4PO+vXv3yp9jERAQwGKxzMzMmEymlpbWwoULy8vLcTvPnz+fO3cul8u1tLT8/PPP8Rg4NjY2VVVVN2/eHDVqFI/Hmzlz5rNnz86dOycUCqOjowf61ZR+rAYGBrJYLOrBa0ZGBk5BMjAwwM/4JG3evJnKS+jp6YmPjx89ejSLxdLV1fX29n7w4AFJkrL3nrTMGG9vb4RQeHh43x4WFxf3+3un0hEuXbr09ttvczgcU1PTzZs345dJKR4eHmZmZj09PcraY5CXAJRjoHFqQPALHCpq/JWUfqyWlpYymcwjR44osc1B6O7udnFxSUlJUW6z9fX1XC53165dSmwT8hLA64GGb+EPmo2NTVRUVFRUlBrfFuju7s7MzGxublb6Q97IyMhJkybhAdpo4jW4j0695A0AfYSEhLS0tPj5+R07dgy/6jDE8vLy0tPTs7OzZWdyDVRCQsLt27fPnTun4DDcygXnU0Dltm7dmpqa2tjYaGlpefr0aXV3R2liYmICAwO//PJLtWzd1dX12LFj1KuRSpGVldXR0ZGXl0e3N95fg/OpU6dOqbsLbwTVlduJjY2NjY1VUePq5ebm5ubmpu5eKI2Xl5eXl5e6e9EPOJ8CANAdxCkAAN1BnAIA0B3EKQAA3UGcAgDQnWrjlJ+fn7QRSLAzZ86oYruSdYp6oUa3kN/UqVM1NDQmTZo06P6sWLFCKBQSBNH3bdJei6DSFAB9qfx8Kicnp6GhQSwW4zcnPT09Ozs7W1tba2trV65cqaKNUnWKqDEku7q6RCJRTU3NIJLirl+/PnfuXEX6c+jQIWmlYnotIukzIjUAtKHa/CmCIHAtQ8k5LBaLxWLx+XzZw1kol4aGBo/H4/F4tra2g2tBdelFknClqSHYEACvEdXGKapgRr9kD2ehIpmZmYP7oIKvEcgIc0qJgCRJ4nH+P/30U8VbA4BW3tD76ImJiQKBgMFgTJ482djYmMViCQQCR0dHFxcXPCyZjo7Oli1bJD9SVlZmb28vEAh4PJ6Liws17rW0mkUkScbHx9vZ2XE4HG1tbTxciexF8leawtuNjY21s7Pj8XgGBgaWlpaxsbFLlixR9a4DQA0GPdLCQMfKwPenqIF45KHgWBCS96dIkly3bl1xcTE1GRERgRAqLCxsbW2tr6+fN28eQujs2bN1dXWtra34ZfHbt2/jlV1dXa2srCoqKsRi8d27d6dNm8blcn///XdSes2i0NBQgiB279798uVLkUiEy4fgQkMyFslfaSomJkZDQyMrK0skEt24ccPY2HjOnDmD3lekisd1Ua8hGIMIyAbjusjS2NhIPen717/+1XcFBwcHPp+PC/YhhMzNzQ0MDPh8/vLlyxFCklU9hEKhhYUFk8kcO3bswYMH29vbDxw40N7evm/fPm9vbx8fHx0dnW3btrFYrNTU1La2tj179rzzzjsbNmzQ0dHh8Xh6enq4HRmLpHF2dtbS0jI0NPTz82ttba2qqkIIZWZmTp482dPTk8fjOTo6enl5Xb58GQ9rDcAw8xq8h6wIbW1tXOQDIRQUFCRjTVyGiCoWhO9GSRu3e/z48dra2kVFRdJqFpWVlYlEIldX176flbHolSQrTbW3t0sWDe/u7maxWJJ1ugdh6dKlS5cuVaQFOhuaJyFAFYZ5nJKUmJioxNZYLJZYLKZqFm3bto1aZGpqioeXxpVCepGxaEDc3d3j4+OzsrLc3NxKSkoyMzPfffddBeNUUFCQk5OTgh2joT179iCE1q9fr+6OvLkKCgoU+QG+QXFKibq6ul68eGFubk7VLOp1svbLL78ghDo6Ovp+Fp8E9btoQCIjI2/cuOHv79/S0mJqarpkyRLFCxw4OTkNyzvxeGigYfnVXiOKxKlhfn+qrz/++OPjjz9WsJFffvmlp6fH0dFRWs2icePGMRiMS5cu9f2sjEUDUlJSUl5eXldXJxaLq6qq9u3bR7exzQBQljcoTpEk2dbWlp6ejit5DFRnZ2djY2NXV9fNmzcDAwNHjRrl7+8vrWaRoaGhr6/v6dOnU1JSmpqaioqKDhw4gNuRsWhA1q5da25ursbxuQEYOoN+Uij/s96mpqZZs2bhp1oMBsPGxiYmJkaeDw76WSZVp6hf27ZtS0xMxFnyFhYWV65ciYuLw0NcGxsbHzt2LC0tDVdY1NXVPX78OEmSqampc+fONTIyYjKZ+OHgo0eP8Lak1Sxqbm5euXKlvr6+pqbmzJkzw8PDEUIjRoy4c+eOtEUrV66Uv9JUbm6uvr4+9aVYLNaYMWPS09MHsbswBHkJQGWgLtYbKjk5OSgoiJrs6OhYv349h8OhisoNFMQpoDoK/pbhPvpr6dmzZ4GBgZL3xdhstrm5uVgsFovFPB5PjX0DQOneoPtTwwmPx2OxWCkpKTU1NWKx+OnTp4cOHQoPD/fz8xvc3TcA6Azi1GtJW1s7Jyfn7t27tra2PB7PwcEhNTU1Li7u3//+t7q7BoDywXXf68rFxeWnn35Sdy8AGApwPgUAoDuIUwAAuoM4BQCgO4hTAAC6gzgFAKC71yBOya6sBZRF3X9nGrl48WJISIhkdbUPPvhAcgU3NzehUKihoTF27NibN28OZd+ioqIcHBy0tLQ4HI6Njc2WLVsk3/HMz8/HlVNMTU2Dg4MHMSxHe3u7vb09NU6RWCwODw+3srJis9lmZmabNm1qa2tDCP3www87d+7s7u5W1veS7TXIS6BGHAcqNYxHyBuQiIiIW7duHTt2TCgU+vj42NjYNDQ0HD161M/Pz8PDA6+Tk5Nz/vz5/fv3D7osyKDl5uauXbvWz8+PxWJlZ2cvX768uLg4OzsbIVRSUuLm5rZp06acnJyioiJPT8+6urrDhw8PqP3Q0NAHDx5Qk0FBQYcPH05NTfXw8Lhx44aXl9cff/xx7NgxT0/PiooKV1fXzMxMHR0dJX/Jvgb9xg283zfMIJW93ycSiZycnNTYiPzH6pdffmlra9vW1kbNsba2PnbsGIPBMDMza2hooOZnZ2cPaLB/ZfHw8Ojq6qIm8aBaVVVVJEkuXbrU0tKyp6cHL4qPjycI4rfffpO/8f/+979ubm44WpEkWV5ezmAwPv30U2oFfJ517949PBkYGOjk5CQWi1/ZMoyPDuguJSWltraWDo3IVlZWFhYWtn37dskBnRFCzs7OQUFBT5482bRpk0o7II8zZ85IjtpqYGCAEBKJRF1dXWfPnp09ezZ1CT9//nySJLOysuRsua2tbfPmzZKj2V2/fr2np2fatGnUHFzu5MKFC3gyMjLy9u3byh0pt18Qp8AAkCSZkJAwZswYDoejq6u7cOFCXOoiMDCQzWbjQWkQQmvWrBEIBARB1NfXBwUFbdy4sby8nCAIGxubpKQkLpdrZGS0atUqU1NTLpfr7OxcWFg4oEYQQufPn9fS0lJ8CFNJSUlJJEl6enr2XRQdHW1ra3vo0KGLFy/Kv1teWdms34pqA/LkyRMej2dpafnw4cOWlhZzc3NqER7aqKioSM6mQkND16xZIzkiNoPBQAhJvtY+evRohNBvv/2GJ3V1dWfPnp2YmEiquo73oM/E4LpvmEFyXPeFh4ez2ewjR440NDQUFRU5OjoaGBg8e/aMJMlly5YZGxtTa8bHxyOE6urqSJL08fGxtramFgUEBAgEgnv37rW3t5eUlEydOlUoFOIrF/kbOXPmjFAojIqKkueryXmsWllZOTg49JppbW1dUVFBkuTVq1cZDIaFhUVLSwv51+s+GbtFRmUzaRXV5Nfa2ioUCgMDA0mSxCPExsfHS67A4/FcXV3laSo/P9/T05Mkybq6OvTndR+OcWFhYdRquNCJt7c3NSckJAT9WdVNBrjuA0Okra0tISFh0aJFy5cv19bWHj9+/P79++vr6wcxHimTycRnHw4ODvv27Wtubk5NTR1QCx4eHk1NTWFhYQPdtDStra0VFRUyhld0cnJav359ZWXlF198ITlfnt3St7KZtIpqA+pzbGysqalpdHQ0+nPE/V6FPFgsFn48J1tbW1tQUNC+fft6zR8/fvy8efOSk5Nzc3Pb29ufPXuWkZFBEIRkHSZ8hlVcXDygng8UxCkgr5KSkpaWlilTplBzpk6dymaz8VXboE2ZMoXP50uWSlSL2tpakiTxAKrSREdH29nZJScnU9Ww0QB3C1XZTFpFNfk7nJGRcfLkyQsXLgiFQvRnfRCqsBvW2dkpz2BkW7du/fTTT83MzPouSktLW7x48Ycffqinpzdjxoz//Oc/JElKDiSL91hNTY38PR8EiFN/0dHRsW7dOhMTEz6f/8477xgZGREEsX//fmW1v3PnTnt7ex6PJxAI7O3tw8LCmpqa8CLZeTF0gCshampqSs7U0dFpbm5WsGUOh4MvN9Sovb0d90TGOlwuNzU1lSCITz75hDpPGdxuoSqqUflrjx49EolEcvY2LS0tLi4uLy/PwsICz8H39ajDCSEkEona29tNTU1lN5Wfn19cXLxixYp+l2pra+/fv7+6ulokEpWXl+/evRsh9NZbb1Er4DiI957qQJz6i927d58/f/7+/fuJiYmrVq26evWqctu/cuXKypUrq6qqampqduzYsXPnTl9fX7wI58VUVlbW19fHxsYmJiYuXrxYuVtXEE6T6fXza2hoGDFihCLNisVixRtRHP69vTJx0cnJacOGDaWlpTt27MBzBrdbqIpqkndhCgoK5Onq3r17jx49mpubKxkvLC0thULho0ePqDllZWUIoQkTJshuLSUl5eeff2YwGDhc4o7FxMQQBPHrr7/2Wvn69esIoblz51JzcAluVQ8hC3HqLzIzM6dMmaKjo/Ppp59SEUQRbW1tzs7O1CSbzcaPVDQ1NRcvXrxw4cKffvrpjz/+QAhpamoGBATo6ekJhcIlS5Z4e3ufP3/+8ePHivdBWcaNG6epqSl57BYWFnZ2dk6ePBkhxGQypZWPli0vL48kyenTpyvSiOLwuXNjY+Mr19yxY4e9vf2tW7fwpOzdIo20imqykSQZHBxcXFycmZnZ6wyOyWS6u7tfvny5p6cHz8nOziYIot/Hl5JSU1MlY6XkfXTJi1ns4MGDlpaWs2fPpubgPYbrnqgOxKm/qK6uxhXblaVX1k9GRoZkbg6+I4Cv76TlxSixMwricrkbN27MyMg4evRoU1NTcXHx6tWrTU1NAwICEEI2NjYvXrzIzMwUi8V1dXWS/7Hr6ek9ffq0srKyubkZh6Genp6XL192dXUVFRUFBQWZm5v7+/sPqJHs7Gzl5iXw+XwrKytcrfqV+yE1NZX6Y8neLTIa6beiGkLIz8/P2Ni439dx7t2799VXXx08eJDFYkm+87Rr1y6EUFhYWE1NTURERGtra0FBQXx8vL+/v52dnew2ZXv77bcfPXrU1dVVWVm5adOmixcvpqSk4LtsGN5j48ePH2jLAzPoJ4XDLC8hJydH8lmPQCAgSbK0tBQh9M033+B1enp6du/ebW9vz2azdXR0vLy8qGTfy5cvjxkzBt9dGjdu3Pnz50mSXLduHfUXlXymTvHw8NDR0eno6Oi7yMvLi8fj9btIRZAceQk9PT3x8fGjR49msVi6urre3t4PHjzAi54/fz537lwul2tpafn5559v3rwZIWRjY1NVVXXz5s1Ro0bxeLyZM2c+e/YsICCAxWKZmZkxmUwtLa2FCxeWl5cPtJFz584JhcLo6Gh5vpqcx2pgYCCLxaIK9lDV1QwMDNauXdtr5c2bN1N5CdJ2i+zKZtIqqnl7eyOEwsPD+/ZQ2mM1Kh3h0qVLb7/9NofDMTU13bx5c3t7O54vo81eJM+nSJL8xz/+oaOjw2QydXV1PTw8+mZOeHh4mJmZUUnw0kBdLGUyNjb+6KOPqMlecUpGmsypU6ciIyNfvHjx/Pnz6dOn6+vr44/0yvrBOjs7q6ur9+7dy+Fwjhw50rcbknkxQ0aeOKUU+PJ2CDZEkfNYLS0tZTKZ/f5FhlJ3d7eLi0tKSgrN2yRJsr6+nsvl7tq165VrQv7UEJGdJuPr6xsREaGrq6unp+fp6fn8+XMZD7BGjhw5YsSIyMjIr776qt+3fyXzYoalIXvPfkBsbGyioqKioqLU+KS1u7s7MzOzubnZz8+Pzm1ikZGRkyZNCgwMVG6zfUGckpf8aTL4DpeMGgVRcAAAIABJREFUn+Ljx49ra2u///77f//733/72996vbbWKy8GDKWQkJDFixf7+fnJc0NdFfLy8tLT07Ozs2Vncqm9TYRQQkLC7du3z507p9xbuv2COCUv2WkyZ8+enTNnjqGhIYfD2bJli+ymWCyWoaGhm5tbWlpaSUlJbGwstahvXswws3Xr1tTU1MbGRktLy9OnT6u7O/2IiYkJDAz88ssv1bJ1V1fXY8eOUS850rbNrKysjo6OvLw8XV1dJTYrDcQpeclIk6mqqvL29jYxMSksLGxsbNy5c6ecbdrY2GhoaJSUlODJfvNihpnY2Fj8cKCiokIpmR+q4ObmFhcXp+5e0JqXl1dISEiv13RUB+KUvGSkyRQXF4vF4s8++8zKyorL5UobG/P58+fvv/++5JzS0tLu7u6RI0eS0vNiAAAQp+QlI00GD6Zx8eLF9vb20tJSyTtWklk/bDY7JycnNze3qalJLBbfunXro48+EggEGzZskJ0XA8AbDuLU/3r06JGjo2NNTc2xY8cmT56cnp6ekJAwc+ZMhNCmTZt8fHwQQhEREbGxsVFRUQYGBrNnz7awsMjLyxMIBOPHjw8ODk5OTjY1NQ0NDZ0zZw5CaObMmY8fP169erWRkZGDg4O7u7tIJJoxY8aKFSvMzMyEQuHixYstLCyuXbs2btw4UtXD9wDwOiMG/QvBb5+dOnVKqf35i5MnTy5duhR+w0ODIIgTJ07gcWyHmSE4VoFsCv6W4XwKAEB3EKcAAHQHcQoAQHcQpwAAdAdxCgBAdxCnAAB0B3EKAEB3EKcAAHTHVOTD1dXVJ0+eVFZX+sLD2qt0E0CSnHUEXjt4bFw4kNRI0UNr0CPs0fZldwAAPQ062gz+vRkA+jWM378B6gL3pwAAdAdxCgBAdxCnAAB0B3EKAEB3EKcAAHQHcQoAQHcQpwAAdAdxCgBAdxCnAAB0B3EKAEB3EKcAAHQHcQoAQHcQpwAAdAdxCgBAdxCnAAB0B3EKAEB3EKcAAHQHcQoAQHcQpwAAdAdxCgBAdxCnAAB0B3EKAEB3EKcAAHQHcQoAQHcQpwAAdAdxCgBAdxCnAAB0B3EKAEB3EKcAAHQHcQoAQHcQpwAAdAdxCgBAdxCnAAB0x1R3B8Br78CBAy9fvpSck5WVVVFRQU1+/PHHRkZGQ94vMHwQJEmquw/g9RYQEHDgwAEOh9N3UVdXl7a2dk1NDZMJ/yOCwYPrPqCo9957DyHU0R8Gg/H+++9DkAIKgvMpoKienp633nqrpqam36X//e9/nZ2dh7hLYJiB8ymgKAaDsXz5cjab3XeRqampk5PT0HcJDDMQp4ASvPfee52dnb1mslisjz76iCAItXQJDCdw3QeUw8bGpry8vNfMO3fuTJgwQS39AcMJnE8B5Vi+fDmLxZKcY2NjA0EKKAXEKaAcy5cvF4vF1CSLxfL391dfd8CwAtd9QGkmTpxYXFxMHVGlpaU2Njbq7RIYHuB8CijNhx9+qKGhgRAiCGLy5MkQpICyQJwCSvPee+/19PQghDQ0ND788EN1dwcMHxCngNK89dZbzs7OBEH09PQsXrxY3d0BwwfEKaBMH3zwAUmSs2bNMjU1VXdfwDBCqpuvr6+69wEAQBZ1BwmSFi+ITp8+ff369aprv6CgIDEx8cSJE6rbhBotXbo0KCiIPq+nJCQkBAQECAQCxZvas2cPQkilxwaQDf921N0Leow/NWLEiCVLlqh0E4mJiarehLosXbrUycmJPt/O2dl5xIgRSmnq1KlTCCH6fLU3Ex3iFNyfAkqmrCAFAAXiFACA7iBOAQDoDuIUAIDuIE4BAOgO4tT/2bVrl5GREUEQ+/fvV1cfenp69uzZAwP1AiAJ4tT/2bRp09WrV9XYgdLS0lmzZm3YsEEkEqmxGwDQDcSpAWtra1PF+c6dO3e++OKL1atXT5o0SemNA/Bagzg1YCkpKbW1tUpvduLEienp6cuWLeu3EB4AbzKIU7JcunTp7bff5vP5Wlpa48ePb2pqCgoK2rhxY3l5OUEQNjY2iYmJAoGAwWBMnjzZ2NiYxWIJBAJHR0cXF5eRI0dyuVwdHZ0tW7ao+3sA8HqDOCVVa2urp6enr6/vixcvSktLbW1tOzs7ExMTFyxYYG1tTZJkWVlZUFDQ5s2bSZL85ptvKioqnj17NmvWrFu3boWEhNy6devFixcfffRRfHz8nTt31P1tAHiNQZySqrKysqmpaezYsVwu19jYOD093cDAQNrKDg4OfD5fX18fFwc2Nzc3MDDg8/nLly9HCN2/f3/o+g3AsANxSiorKysjI6Ply5dHRkZWVlbK+SlcbrOrqwtP4hIskgUO6ODcuXPa2to//vijujuiZBcvXgwJCUlPT7eysiIIgiCIDz74QHIFNzc3oVCooaExduzYmzdvDmXfoqKiHBwctLS0OByOjY3Nli1bWlpaqKX5+fkzZszg8/mmpqbBwcEdHR0Dbb+9vd3e3n7btm14UiwWh4eHW1lZsdlsMzOzTZs2tbW1IYR++OGHnTt3dnd3K+t7DQ2IU1LxeLzc3NyZM2fGxMRYWVn5+fnhv/QwQA7H4h0RERFJSUlbt2718fF5+PChtbW1vr7+0aNHz549S62Tk5Nz6tSpBQsWlJSUODo6DmX3cnNz165dW1lZWV9fHxsbm5iYSA15WlJS4ubm5urqWldXl5GRcfjw4dWrVw+0/dDQ0AcPHlCTQUFB8fHxsbGxz58/P3bs2MGDB1esWIEQ8vT05HK5rq6uDQ0NyvpqQwDilCxjx4798ccfnz59GhwcfOLEiV27dqm7R8rh4eHR2Ni4YMECFbWvotQNGeLi4tLS0k6ePCkUCqmZSUlJDAYjICCgsbFxKDvTL01NzYCAAD09PaFQuGTJEm9v7/Pnzz9+/BghtGPHDhMTk+3btwsEAicnp+Dg4G+//XZA9wquXr169+5davLhw4f79+//8MMP/fz8hELhnDlzAgMDv//++99++w0htG7duokTJ7q7u1Nn/fQHcUqqp0+f3rt3DyFkaGj45ZdfOjo64knwSipK3ZCmrKwsLCxs+/btXC5Xcr6zs3NQUNCTJ082bdo0ZJ2R5syZM7gYD4bvdYpEoq6urrNnz86ePZsqcD9//nySJLOysuRsua2tbfPmzZKjRF2/fr2np2fatGnUnHnz5iGELly4gCcjIyNv375Nh4Gl5ARxSqqnT5+uWrXq/v37nZ2dt27devTo0fTp0xFCenp6T58+raysbG5uptuNJ3nk5+ebm5sTBPH1118jhPbt2ycQCPh8flZW1vz587W0tEaMGHH8+HGEUFJSEpfLNTIyWrVqlampKZfLdXZ2LiwsRAgFBgay2WwTExPc5po1awQCAUEQ9fX1vVI3EELnz5/X0tKKiYlR0TdKSkoiSdLT07PvoujoaFtb20OHDl28eLHvUpIkExISxowZw+FwdHV1Fy5ciM9iZOwThFB3d3d4eLi5uTmPx5swYcLgxol98uQJj8eztLR8+PBhS0uLubk5tcja2hohVFRUJGdToaGha9asMTQ0pOYwGAyEEI/Ho+aMHj0aIYTPpxBCurq6s2fPTkxMfG3uAKhxzGPM19fX19dXpZvAR9IrV9u9e7exsTFCSCAQLFq0qLKy0tnZWVdXV0ND46233goNDe3q6iJJ8ubNm6NGjeLxeDNnzgwJCeHz+QghCwuLK1euxMXFaWtrI4SMjY2PHTuWlpaGG9TV1T1+/LjsrRcUFMyYMYMqf2BiYuLs7Hzp0qVXdhshdOLECTl3BYYvN/bu3YsnQ0NDEUI///xzY2NjbW2ti4uLQCDo7OwkSRKPIHzv3r329vaSkpKpU6cKhcKqqiqSJJctW2ZsbEy1GR8fjxCqq6sjSdLHxwenbmBnzpwRCoVRUVED6iQp97FhZWXl4ODQa6a1tXVFRQVJklevXmUwGBYWFi0tLSRJZmdne3l54XXCw8PZbPaRI0caGhqKioocHR0NDAyePXsme59s2rSJw+GcPn365cuXW7duZTAY169fH9D3am1tFQqFgYGBJEleunQJIRQfHy+5Ao/Hc3V1laep/Px8T09PkiTr6uoQQqGhoSRJ4hgXFhZGrYYv8by9vak5ISEhCKFbt27Jbl/O346qqb8H9IlTryllxam2tjY8mZycjBAqKysjSTIgIEBbW5v64PXr1xFC27dvJwcSpwZNnmOjpaWFIIgFCxb0mk/FKZIkN27ciBBau3YtKRGnRCKRpqamn58f9ZH/+Z//QQjheCptn7S1tfH5fOpTIpGIw+F89tlnA/peoaGhtra2TU1NJEnm5OQghBISEiRX0NLScnZ2fmU7IpFoypQp1dXV5F/jFEmS8+bN09PT+/nnn9va2v7444+TJ08SBPHuu+9Snz18+DBC6LvvvpO9CZr8duC6D/SGUyv6vaSdMmUKn8+nVTpYbW0tSZL4rFaa6OhoOzu75OTk/Px8amZJSUlLS8uUKVOoOVOnTmWz2fjCthdqnzx48EAkEo0bNw7P5/F4JiYmA9ohGRkZJ0+evHDhAr7lj++p9bql3dnZKXnVJs3WrVs//fRTMzOzvovS0tIWL1784Ycf6unpzZgx4z//+Q9Jkvr6+tQKeI/V1NTI33M1gjg1RO7fv09I5+fnp+4OyovD4eD/ummivb0dIST7pUgul5uamkoQxCeffEIll+AH85qampJr6ujoNDc3y2iqtbUVIbRt2zbqb/fo0SP5x7dIS0uLi4v7/+zdeVwUR9o48BqcixmGAWQ4AsqtKKC+eIIazZLwiRI5AgoeSYhvDF5BRBFBQeTyQIHFgH40ht2IUbkWjApL1KBxRdesEHjxCCKHROVSzgEGmP79Ub/0TkDHAeZo8Pn+ZVd3V1c3M4/dNdX1FBYWmpqa4hLcx9fW1kZuIxQKu7u735gA8caNG2VlZXi0wWB8Pv/YsWN1dXVCobCysvLw4cMIoXfeeYfcAMdBfPWoD+KUklhbW0u5rT179qyqGyiT3t7elpYWSmVqwN+3Nw5cdHBwCAwMrKioiIqKwiVaWloIoQFR6Y1nh7urExISJP98RUVFsjT1yJEjaWlpV69elYwXZmZmPB6vpqaGLHn06BFCaNq0adJrO3ny5JUrV9TU1HC4xA2LiYmh0Wi//PLLgI3xA/t7771HlohEIvTnvnYqgzgFhqCwsJAgCPy7J51Op8LPnXhqQ1lGSEVFRVlbWxcXF+NFW1tbDQ0Nya/07du3RSLRzJkzpVSCXy8vKSkZUiMJgggODi4rK8vJyRlwB0en05cuXXr9+nWxWIxL8vLyaDTaK3++lJSamioZKyX7pyQfZrETJ06YmZktWrSILMFXDP/OQ30Qp8AbiMXily9f9vX1lZaWBgQETJw40dfXFyFkaWn54sWLnJyc3t7exsZGyTuCAUM38vLyFDcugcPhmJub19XVvXFL/PRHDmJis9nbtm3Lzs5OS0tra2srKyvbsGGDoaGhn5+f9Eo+//zzM2fOpKSktLW19ff319XVPXv2DCHk4+Ojr6//ytdx7t27d/DgwRMnTjAYDMnnfTxyOCwsrL6+fs+ePZ2dnUVFRXFxcb6+vpMnT5Zep3Rz5sypqanp6+urrq7evn375cuXT548iXvZMHzF7Ozshlqzasi5X37o4Pe+EUJD/L3vyJEjuE+Ew+G4uromJyfjLlUrK6vKysrjx49ramoihExMTH777Tc/Pz8Gg2FkZESn0zU1Nd3d3SsrK3E9zc3N7733HpvNNjMz++qrr4KCghBClpaWtbW1kkM3nj9/funSJR6PFx0dPdRTk/Gz4e/vz2AwhEIhXszOzsZDkHR1dfFvfJKCgoLIcQlisTguLs7KyorBYGhra3t4eDx8+JAgCOnXpKenJzg4eOLEiXQ6XSAQeHp6lpeXEwTh4eGBEAoPDx/cwrKysld++8jhCHgGIRaLZWhoGBQU1N3djcul1DnAgN/7PvjgAy0tLTqdrq2t7eLiMnjkhIuLi5GRkVgsll4tRb47qm8BxKkRGmqcGhL8qoeCKn8jGT8bFRUVdDr91KlTSmiSFP39/QsXLjx58iTF6yQIoqmpic1mHzp06I1bUuS7A8994A2o/269paVlZGRkZGSk5AwEStbf35+Tk9Pe3i7Hn24VUScWERExY8YMf39/+VarOHRVN0B50tPTVd0EoCghISEdHR0+Pj6nT5/GrwQoWWFhYVZWVl5envSRXCqvEyEUHx9fUlJy6dIlPOnQqPAWxSlvb29VN2GUCQ0NTU1NFYlEZmZmcXFxXl5eqm6RNDExMQUFBfv27du/f7/yj+7k5OTk5ET9OnNzc3t6egoLCyVfiqa+tyhOEaPllcshIt+zl7vY2NjY2FgFVa4Izs7Ozs7Oqm4Fpbm5ubm5uam6FUMG/VMAAKqDOAUAoDqIUwAAqoM4BQCgOohTAACqgzgFAKC60RGnfHx8pEzeRKPRLly4MPKjSOZ9MzAwwClCB/v11199fHzMzMxYLJauru706dOjo6NlaeTnn39O1h8WFvbKyuPj42k0mpqamrW19fXr10d+UgCMAaMjTiGECgoKWlpaent78bvprq6uIpGos7OzoaFh3bp1cjkEmfeNz+c/f/48LS1t8DZlZWWOjo4GBgY//fRTa2vrzZs3P/zww8LCQlkaSdaPEPrmm28GT4rS39+flJSEEPrLX/7y4MGDd999Vy7nBcBoNzriFI1Gmz9/Pp/Pp9PpZAmDweBwOAKBQPqEQfJ16NAhLS2txMREU1NTNps9adKkqKgoPNmY7I2cOXPm8+fPc3JyBlSelZX1yjlkAXjLjY44debMGSmvOPn5+X300UfKaUlzc3Nra+uLFy/IEiaTiROgy97IjRs3IoSOHj06YJv4+HiccQAAIGl0xCnqmD17dmdn51/+8pd//etfw67kL3/5y5QpU3766SfJRNv/+te/hEIhvPYBwGAQp4Zmx44ds2bN+vXXXxcsWGBjY3Pw4EHJeyvZrV+/HiF07NgxsuTw4cOBgYFyaygAY8hb9B6yXKirq9+8efPo0aNHjx69d+9ecHDw4cOH09PTJWeelsVnn30WGhr697//PTY2Vl1d/fHjx3fu3Dl79iyeXX+oEhISMjIyhrEjxd26dQshtHz5clU35O0ly4TOSgD3U0PGYDD8/f3v379/69Ytd3f3hoaG5cuXv3z5ckiV8Pn8VatWvXz5EmeaSUhI2Lhxo+T01QAAEtxPDd/cuXP/8Y9/bNy48ejRoz/99NPHH388pN03btx44sSJY8eOeXh4ZGRk3L9/f9gt2bp164oVK4a9O2XhO6kxeas4WqSnp1Nh4ja4n5LJ9evXExISEEKenp4DUtd+8sknCCHZM02SZsyYMW/evH//+99+fn7Lly/X1taWV2sBGGMgTsnkP//5D5fLRQj19PTcu3dPchX+ze6NWSFfCQ9QyMzM3Lp1qzyaCcDYBHHqDXp7e+vr6wsLC3GcQgh5eHikp6e3tLS0trbm5ubu3LnTzc1teHFqxYoVurq6Hh4e5ubmcm01AGPKaIpT7e3tixYtsrGxQQj98MMPVlZW8p0V9x//+IelpWVlZWVrayv5Uh6TyTQwMDh//jwew7lly5bZs2eHhoYaGBjo6ekFBwdv2LAB5w56YyPJ+mfPnv3VV18hhFgs1tq1a8mxnWFhYVZWVgihn376ycbG5saNG3I8OwBGL5rKZw1XQl8p7gtU+ZkqCI1GO3fuHPSjA0WgyHdnNN1PAQDeThCnAABUB3EKAEB1EKcAAFQHcQoAQHUQpwAAVAdxCgBAdRCnAABU9xbNlwDTGL3NLl++fOXKlVmzZgUFBVVVVSGE1qxZc+rUKXIDZ2fnoqIioVBobW196tQpe3t7JbdQLBb/9a9/zcjIuHnzpmR5b29vXFzct99+W1tby+FwjI2NL1y4YGpqihC6ceNGcHBwcXExn8//9NNPIyMjWSzW+fPn79+/v3379nHjxin5FBQH7qfA2Ldnz56kpKTQ0FAy5c/48ePT0tIuXrxIblNQUJCRkbFs2bLy8nLlB6mKiop33303MDBw8MQb3t7e33333enTp4VC4f379y0sLDo6OhBC5eXlzs7OTk5OjY2N2dnZ33777YYNGxBCrq6ubDbbycmppaVFyWehQISqeXl5eXl5KfQQ+P07hR5ChRBC586dU0TNQqHQwcFBhZXI5bOxb9++SZMmdXV1kSUWFhanT59WU1MzMjJqaWkhy/Py8tzc3EZ4uGEoKSn5+OOP09LSZsyYMX36dMlVZ86codFopaWlg/fy9vY2MzMTi8V4MS4ujkaj3b9/Hy/6+/s7ODj09vaOsG0U+e7A/RR4rZMnTzY0NFChkmF79OhRWFjY3r172Wy2ZLmjo2NAQMDvv/++fft2VbWNNH369KysrNWrV7NYrAGrjh49am9vb2dnN6C8r6/v4sWLixYtotFouGTJkiUEQeTm5uLFiIiIkpKSxMRERTdeOSBOvRUIgoiPj58yZQqLxdLW1nZ3d3/w4AFCyN/fH08IgTfbtGkTl8ul0WhNTU0BAQHbtm2rrKyk0WiWlpZJSUlsNltPT2/9+vWGhoZsNtvR0fH27dtDqgQhlJ+fr6mpGRMTo5wTT0pKIgjC1dV18Kro6OhJkyZ98803ly9fHrz2dVcsJSWFy+VyOJzc3NwlS5ZoamoaGxufOXMG79Xf3x8eHj5x4kR1dfVp06ZJTqQxDCKR6NatWzNmzBi86vHjxx0dHRMnTiRLcP7a0tJSvKitrb1o0aLExERC1a8Qy4dK7+YIAp77RgzJ8NwXHh7OZDJPnTrV0tJSWlpqb2+vq6v7/PlzgiBWr16tr69PbhkXF4cQamxsJAjC09PTwsKCXOXn58flcu/du9fd3V1eXj579mwej1dbWzukSi5cuMDj8SIjI2U5tZF/NszNzadOnTqg0MLCoqqqiiCImzdvqqmpmZqadnR0EH9+7pNyxXbt2oUQunLlSmtra0NDw8KFC7lcrkgkIghi+/btLBYrMzPz5cuXoaGhampqd+7ckb21c+fOlXzuw/39M2bMWLx4sYGBAYvFsra2/vrrr8Vi8bVr1xBCcXFxkrurq6s7OTmRiyEhIQih4uLioVywgSjy3YH7qbGvq6srPj7+448/XrNmDZ/Pt7OzO3bsWFNT0/Hjx4daFZ1Ox7cYU6dOTUlJaW9vT01NHVINLi4ubW1tYWFhQz30MHR2dlZVVeEbjVdycHDYunVrdXX1zp07JctluWKOjo6ampoCgcDHx6ezs7O2tra7uzslJcXDw8PT01NLS2v37t0MBmOo10cS7i8XCAQxMTHl5eX19fXu7u6bN2/+/vvve3p6EEIDftFjMBhdXV3kIp7LrKysbNgNoA6IU2NfeXl5R0fHrFmzyJLZs2czmUz81DZss2bN4nA4+GmImhoaGgiCkJKkGiEUHR09efLk5ORkyVkJh3TFcJag3t7ehw8fCoVCW1tbXK6urm5gYDCS64O7q2xsbBwdHXV0dPh8/t69e/l8/vHjx3F324Cp+kUikbq6OrmIT7y+vn7YDaAOiFN/0tPTs2XLFgMDAw6H8/777+vp6dFoNMlsoCN04MABa2trdXV1LpdrbW0dFhbW1taGV0VGRk6dOlVTU5PFYllaWu7YsQP/dzpy+PdpDQ0NyUItLa329vYR1sxisRobG0dYieJ0d3ejP77tr8Nms1NTU2k02tq1a8mbkeFdsc7OToTQ7t27yclga2pqhpHgg2RoaIgQampqIkuYTKaJiUllZSXuDSQ/PAghoVDY3d2Nd8FwzMIXYbSDOPUnhw8fzs/Pf/DgQWJi4vr16weMuBu5n3/+ed26dbW1tfX19VFRUQcOHPDy8sKrrl69unnz5urq6qamptjY2MTERHkNTNXS0kIIDfiOtbS0GBsbj6Ta3t7ekVeiUPiL2t/fL30zBweHwMDAioqKqKgoXDK8KyYQCBBCCQkJkh0rRUVFw26/hoaGlZXVgLwhfX19fD7fzMyMx+PV1NSQ5Y8ePUJ/zieCc9ZK3mGNXhCn/iQnJ2fWrFlaWlpffvklGUFGoqury9HRkVxkMpmbNm0SCAQaGhrLly93d3f/8ccfnz17hhDS0NDw8/PT0dHh8XgrVqzw8PDIz89/8uTJyNtga2uroaHxyy+/kCW3b98WiUQzZ85ECNHp9N7e3mFUW1hYSBDEvHnzRlKJQuHb4dbW1jduGRUVZW1tXVxcjBelX7HXmTBhApvNLikpGWGzJXl7excXFz9+/BgvCoXCmpoaOzs7Op2+dOnS69evi8VivCovL49Go0n+solPXF9fX47tURWIU39SV1fHYDDkWOGA0UPZ2dmSA3mMjIzQH92lFy5ckOwW1dXVRcNKCzgYm83etm1bdnZ2WlpaW1tbWVnZhg0bDA0N/fz8EEKWlpYvXrzIycnp7e1tbGyU/C9aR0fn6dOn1dXV7e3tOAyJxeKXL1/29fWVlpYGBARMnDjR19d3SJXk5eUpbVwCh8MxNzeXJfM4fvojr7/0Kyalks8///zMmTMpKSltbW39/f11dXX4PyEfHx99ff27d+8O9RQCAwNNTEx8fX1ra2ubm5uDg4O7urpwr39YWFh9ff2ePXs6OzuLiori4uJ8fX0nT55M7otPfPDYq1FJNT8zSqDIuISCggLJH4a4XC5BEBUVFQiho0eP4m3EYvHhw4etra2ZTKaWlpabmxs5/Pf69etTpkzBvUu2trb5+fkEQWzZsoVMxS752zzJxcVFS0urp6dn8Co3Nzd1dfVXrhoAyTAuQSwWx8XFWVlZMRgMbW1tDw+Phw8f4lXNzc3vvfcem802MzP76quvgoKCEEKWlpa1tbV37941MTFRV1dfsGDB8+fP/fz8GAyGkZERnU7X1NR0d3evrKwcaiWXLl3i8XjR0dFvPC9CHp8Nf39/BoMhFAp0jkCgAAAgAElEQVTxYnZ2Nv4r6+rqbt68ecDGQUFB5LiE112x5ORk3D9tZWVVWVl5/PhxTU1NhJCJiclvv/3W09MTHBw8ceJEOp0uEAg8PT3Ly8sJgvDw8EAIhYeHv7KRRUVF8+fPJ7uWDAwMHB0dr127htc+efJk5cqV2traLBZrzpw5eXl55I7Xrl2bM2cOi8UyNDQMCgrq7u6WrNbFxcXIyIgcsD48FBmXoPoWUCROYfr6+p999hm5OCBOSRlTk5GRERER8eLFi+bm5nnz5o0fPx7vMmD0ECYSierq6o4cOcJisU6dOjW4GZ2dnTwez9/fX5Y2yxKn5AI/lirhQKSRfzYqKirodPorL7Iy9ff3L1y48OTJk0o7YlNTE5vNPnTo0AjroUicguc+WUkfU+Pl5bVnzx5tbW0dHR1XV9fm5mYpP4RNmDDB2Ng4IiLi4MGD3t7egzeIjY01NDSMjo5W4PkMyxv7pKnG0tIyMjIyMjJSXj+eDkN/f39OTk57e7uPj4/SDhoRETFjxgx/f3+lHVGhIE7JSvYxNbiHS8pX+smTJw0NDd9///3f//73//mf/xnw+lt2dnZ6evo///lPHo8n1zN4S4WEhCxfvtzHx0eWDnVFKCwszMrKysvLkz6SS47i4+NLSkouXbok385WFYI4JSvpY2ouXry4ePFigUDAYrF27NghvSoGgyEQCJydnc+ePVteXi6Z1fns2bP79+8vLCzEEwxRR2hoaGpqamtrq5mZWWZmpqqbMzQxMTH+/v779u1TydGdnJxOnz5Nvv+oaLm5uT09PYWFhdra2so5ohJAnJKVlDE1tbW1Hh4eBgYGt2/fbm1tPXDggIx1Wlpajhs3rry8HC8eOXIkLS3t6tWr77zzjnwbP3KxsbG4U7+qqkouIzaUzNnZef/+/apuhTK4ubmFhISMpUnyEMQp2UkZU1NWVtbb27tx40Zzc3M2m01OtTFAc3PzqlWrJEsqKir6+/snTJhAEERwcHBZWVlOTs6AWzYAAMQpWUkZU4On17h8+XJ3d3dFRYVkj5Xk6CEmk1lQUHD16tW2trbe3t7i4uLPPvuMy+UGBgbeu3fv4MGDJ06cYDAYNAmHDh1S3RkDQBUQp/6/mpoae3v7+vr606dPz5w5MysrKz4+fsGCBQih7du3e3p6IoT27NkTGxsbGRmpq6u7aNEiU1PTwsJCLpdrZ2cXHBycnJxsaGi4a9euxYsXI4QWLFjw5MmTDRs26OnpTZ06denSpUKhcP78+V988YWRkRGPx1u+fLmpqemtW7dsbW2JsTFJEACKQVP5NwS/xZaRkaG4Q6Snp3t7e6v8TBWERqOdO3duxYoVqm6I/CnhswGko8h3B+6nAABUB3EKAEB1EKcAAFQHcQoAQHUQpwAAVAdxCgBAdRCnAABUB3EKAEB1EKcAAJSnykn6CIIgiNH48j0AbxVVBwlC9e/NFBUVySWrCqAIb2/vgIAABwcHVTcEyI3K38pSfZwCY8wYft8QqAr0TwEAqA7iFACA6iBOAQCoDuIUAIDqIE4BAKgO4hQAgOogTgEAqA7iFACA6iBOAQCoDuIUAIDqIE4BAKgO4hQAgOogTgEAqA7iFACA6iBOAQCoDuIUAIDqIE4BAKgO4hQAgOogTgEAqA7iFACA6iBOAQCoDuIUAIDqIE4BAKgO4hQAgOogTgEAqA7iFACA6iBOAQCoDuIUAIDqIE4BAKgO4hQAgOogTgEAqA7iFACA6uiqbgAY9Wpqavr7+yVL6uvrHz9+TC6+8847bDZb6e0CYweNIAhVtwGMbkuWLMnPz3/dWgaD8ezZs/HjxyuzSWCMgec+MFIrV6583So1NbUPPvgAghQYIYhTYKQ8PDyYTObr1n7yySfKbAwYkyBOgZHi8XjLli1jMBiDVzGZzI8++kj5TQJjDMQpIAerV6/u6+sbUEin093d3TU0NFTSJDCWQJwCcrB06VIulzugsL+/f/Xq1SppDxhjIE4BOWCxWMuXLx/QS6WhoeHs7KyqJoGxBOIUkI9Vq1aJRCJykcFgrFy5Ukr/OgCyg/FTQD7EYrG+vn5TUxNZUlhYuGjRIhU2CYwZcD8F5ENNTW316tXkDZRAIFiwYIFqmwTGDIhTQG5WrlyJH/2YTOann346btw4VbcIjBHw3AfkhiAIU1PT2tpahNCdO3dmzZql6haBMQLup4Dc0Gg0PPrcxMQEghSQI8rNl7B8+XJVNwEMX1tbG0KIy+XC33FUCwwMdHBwUHUr/oty91OZmZl1dXUKPcStW7du3bql0ENQkxKuraamJp/PnzBhgkKPMthb+zdVhMzMzCdPnqi6FX9CufsphNDWrVtXrFihuPrxf/UZGRmKOwQ10Wg0RV9bhFBBQYHyh3e+tX9TRaDRaKpuwkCUu58Cox2MQQdyB3EKAEB1EKcAAFQHcQoAQHUQpwAAVAdxagi++OILHo9Ho9FKSkpU3RYA3iIQp4bgm2++OXHihKpbAcBbB+LUaNXV1eXo6KjqVgCgDBCnhoY6Q+BOnjzZ0NCg6lYAoAwQp96AIIi4uLjJkyezWCw+nx8UFITLDx48yOFweDxeQ0PDtm3bjIyMHj58SBBEfHz8lClTWCyWtra2u7v7gwcPEEJJSUlsNltPT2/9+vWGhoZsNtvR0fH27dvkIV65l7+/P5PJNDAwwJtt2rSJy+XSaLSmpqaAgIBt27ZVVlbSaDRLS0tVXBgAlIigGITQuXPnFHoILy8vLy8vGTfetWsXjUY7fPjwy5cvhUJhcnIyQqi4uBivQght2bLlyJEjH3/88f3798PDw5lM5qlTp1paWkpLS+3t7XV1dZ8/f04QhJ+fH5fLvXfvXnd3d3l5+ezZs3k8Xm1tLUEQUvZavXq1vr4+2Zi4uDiEUGNjI0EQnp6eFhYWQzpxJVxbVRnS3xRIR8HPCdxPSdPV1ZWQkPD+++8HBgZqaWmpq6vr6OgM2Gb//v2bN2/OysoyMTGJj4//+OOP16xZw+fz7ezsjh071tTUdPz4cbwlnU7HN01Tp05NSUlpb29PTU3t6uqSvhcAAOKUNI8ePRIKhU5OTrJsXF5e3tHRITnv0uzZs5lMJvl8J2nWrFkcDufBgwdD2guAtxPEKWnwLCgCgUCWjVtaWhBCA9Jqamlptbe3v3J7FovV2Ng41L2U7NKlS3w+/4cfflB1Q+Ts8uXLISEhWVlZ5ubmNBqNnOGP5OzszOPxxo0bZ2Njc/fuXeW3UCwWJyQkDP5Jt7e3NzY21tLSkslkamlp2draVldX41U3btyYP38+h8MxNDQMDg7u6elBCJ0/f/7AgQP9/f1Kbr98QZyShs1mI4Tw3/uNtLS0EEID4ktLS4uxsfHgjXt7e/GqIe2lfMRYnJZ6z549SUlJoaGhnp6ejx8/trCwGD9+fFpa2sWLF8ltCgoKMjIyli1bVl5ebm9vr+QWVlRUvPvuu4GBgUKhcMAqb2/v77777vTp00Kh8P79+xYWFh0dHQih8vJyZ2dnJyenxsbG7Ozsb7/9dsOGDQghV1dXNpvt5OSE/0ccpSBOSWNra6umpnbt2jUZN9bQ0Pjll1/Iktu3b4tEopkzZw7euLCwkCCIefPmSd+LTqf39vaO+DyGz8XFpbW1ddmyZQqqX/mjwPbv33/27Nn09HQej0cWJiUlqamp+fn5tba2KrMxr/Trr7/u3Llzw4YNM2bMGLDq7NmzOTk5GRkZc+fOpdPphoaGubm5tra2CKGoqCgDA4O9e/dyuVwHB4fg4OC//e1v+IfjLVu2TJ8+fenSpX19fSo4H3mAOCWNQCDw8vLKzMw8efJkW1tbaWmplO5tNpu9bdu27OzstLS0tra2srKyDRs2GBoa+vn54Q3EYvHLly/7+vpKS0sDAgImTpzo6+srfS9LS8sXL17k5OT09vY2NjbW1NSQh9PR0Xn69Gl1dXV7e7tqY9lIKHkU2KNHj8LCwvbu3YvvlEmOjo4BAQG///779u3bldaY15k+fXpWVtbq1atZLNaAVUePHrW3t7ezsxtQ3tfXd/HixUWLFpHj+5YsWUIQRG5uLl6MiIgoKSlJTExUdOMVRcW/Nw6CKDYuob29fd26dePHj9fQ0FiwYEF4eDhCyNjYePXq1erq6gihCRMmnDp1Cm8sFovj4uKsrKwYDIa2traHhwceVEUQhJ+fH4PBMDIyotPpmpqa7u7ulZWVb9yrubn5vffeY7PZZmZmX331FR69ZWlpWVtbe/fuXRMTE3V19QULFuBBDG801Gv7888/4xmEjxw5QhBEcnIyh8NRV1fPycn58MMPeTyekZHR999/TxDEX//6VxaLJRAI/Pz8DAwMWCyWg4PDrVu3CIL46quvGAwGObpi48aNHA4HIdTY2LhlyxYy3x8eY5GXl8fj8aKjo2VvJCbj3/Srr74aN25cZ2enZKGFhUVVVZVQKJw0aRJC6Mcff8TleXl5bm5u+N9isfjw4cPW1ta4V8jNze3+/fvSrwlBEH19fWFhYRMmTGCz2XZ2dmfPnh3SSc2dO3f69OnkYk9PD5PJ/N///d/BWz58+BAhFB4eTpZ0dXUhhFatWkWWfPjhh0ZGRmKx+I3HVcJ3cKggTimJn5+fjo6Okg86wDCuLZ4nG8cp4o8hY1euXGltbW1oaFi4cCGXyxWJRITUAWKyjwK7cOECj8eLjIwc6qnJ+Dc1NzefOnXqgEIcpwiCuHnzppqamqmpaUdHB/HnOCVljJuUa7J9+3YWi5WZmfny5cvQ0FA1NbU7d+7IflID4lRVVRVCaMaMGYsXL8b/GVhbW3/99ddisRh3TcTFxUnurq6u7uTkRC6GhISgP4b+SUfBOAXPfcoz2n9zITk6OmpqagoEAh8fn87OTpywD71mgNiQanZxcWlrawsLC1NAq1FnZ2dVVZWFhcXrNnBwcNi6dWt1dfXOnTsly2UZ4zb4mnR3d6ekpHh4eHh6emppae3evZvBYAz1gkjC/eUCgSAmJqa8vLy+vt7d3X3z5s3ff/89/qlnQGJXBoOB76owKysrhFBZWdmwG6BCEKfA8OGntlf2jpEDxJTeqNdqaGggCAI/db5OdHT05MmTk5OTb9y4QRYOaYwbeU0ePnwoFApxJzdCSF1d3cDAYCQXBHdX2djYODo66ujo8Pn8vXv38vn848eP4+62Ad3kIpEId01g+MTr6+uH3QAVgjilDKGhoampqa2trWZmZpmZmapujpLgAWKqbsV/dXd3oz++7a/DZrNTU1NpNNratWvJm5HhjXHr7OxECO3evZv2h5qamsHjDGRnaGiIEGpqaiJLmEymiYlJZWUlfgkUJ0/EhEJhd3c33gXDMQtfhFEH4pQyxMbG9vT0EARRVVXl5eWl6uYoAzlATNUN+S/8RX3j07eDg0NgYGBFRUVUVBQuGd4YNzw8OCEhQbKfpaioaNjt19DQsLKyunfvnmRhX18fn883MzPj8XiSPwc/evQIITRt2jSyRCQSoT8uwqgDcQooBDlADFFgFBimp6dHo9FkGSEVFRVlbW1dXFyMF4c0Mo6Ef+aT79Sv3t7excXFjx8/xotCobCmpsbOzo5Opy9duvT69etisRivysvLo9Forq6u5L74xPX19eXYHqWBOAXk5pUDxNBQRoHl5eVpamrGxMQoonkcDsfc3FyWjND46Y/sln7jyLjXVfL555+fOXMmJSWlra2tv7+/rq7u2bNnCCEfHx99ff1hvI4TGBhoYmLi6+tbW1vb3NwcHBzc1dWFe/3DwsLq6+v37NnT2dlZVFQUFxfn6+s7efJkcl984oPHXo0OKvmVUQo0RsclUMFQr+2RI0dwxweHw3F1dcVjhRBCVlZWlZWVx48f19TURAiZmJj89ttvUgaIyT4K7NKlSwodP+Xv789gMIRCIV7Mzs7GP//p6upu3rx5wMZBQUGS46deOcZN+jXp6ekJDg6eOHEinU4XCASenp7l5eUEQXh4eKA/D3eSVFRUNH/+fLJrycDAwNHR8dq1a3jtkydPVq5cqa2tzWKx5syZk5eXR+547dq1OXPmsFgsQ0PDoKCg7u5uyWpdXFxg/JTcQJxSHIVeW9UOEJPxb1pRUUGn08lxuarS39+/cOHCkydPKu2ITU1NbDb70KFDsmxMwTgFz31Abqg/QMzS0jIyMjIyMhKPRVKJ/v7+nJyc9vZ2Hx8fpR00IiJixowZ/v7+SjuifNFV3QDVyMzMpM5M50CZQkJCOjo6fHx8Tp8+zefzld+AwsLCrKysvLw86SO55Cg+Pr6kpOTSpUsMBkM5R5S7tzROzZs3b+vWrapuhbJ5e3srqGY8QEwkEpmZmcXFxVF87EVMTExBQcG+ffv279+v/KM7OTnJOPOiXOTm5vb09BQWFg4YrT66vKVxytjYeMWKFapuhbIpLk7FxsbGxsYqqHJFcHZ2dnZ2VnUrlMHNzc3NzU3VrRgp6J8CAFAdxCkAANVBnAIAUB3EKQAA1UGcAgBQ3eiLUz4+PjSpLly4MPKjSGZMwphMpp6e3uLFi+Pi4l6+fDnyQwAAZDT64hRCqKCgoKWlpbe3F7/V6erqKhKJOjs7Gxoa1q1bJ5dDkBmT+Hw+QRBisbihoSE9Pd3MzCw4ONjGxkby7XkAgEKNvjhFo9Hmz5/P5/PpdDpZwmAwOByOQCCQPtXGSA6qpaW1ePHi1NTU9PT0+vp6nDBKEccaEuXnlQJA+UZfnDpz5oyUFw78/Pw++ugjhTbAy8vL19e3oaHh2LFjCj2QLJScVwoAlRh9cYoK8LRKeXl5Bw8e5HA4PB6voaFh27ZtRkZGeLqP+Ph4nNFAW1vb3d0dz4qdlJTEZrP19PTWr19vaGjIZrMdHR3JObZft5e/vz+TycTzqyCENm3axOVyaTRaU1NTQEDAtm3bKisraTSapaWlaq4FAIoHcWo4cKLax48f79ixIzAwsKOjIzY21szMbN68eQRBREREhISE7Nq1q6Gh4fr160+ePFm4cGF9fb2/v7+vr69QKNyyZUt1dfXdu3f7+vo++OADnHvqdXslJSVJvuKTnJy8d+9e/O/ExMRly5bhvFJ4nlkAxqS39P2+EeLxeDQaTXLC7P3797PZ7M2bN0vmUEII4RxKc+bMOX78OE73hJNHIYRw8qjZs2enpqYGBQVJ30teRjI/N5XhySrT09NV3RCgEBCnhgMn1MUzNw4wpBxKZPKoIe01EomJiaM4efebKO5Fa6BaEKeG47fffkMIWVtbD1411BxKOHnU8DIvDcO5c+fG5EQRy5cvRwhlZGSouiFjAQWnZoP+qeHIz89HCC1ZsmTwqiHlUCKTRw0v8xIAbwmIU0P2/PnzhIQEY2PjtWvXDl47pBxKZPIo6XtRJK8UAKoCceoNCILo6OjAWToaGxvPnTs3f/78cePG5eTkvLJ/6o05lF6ZPEr6XrLnlVLONQFA2VSWQeI1kGy5Ltra2t59910dHR2EkJqamqWlZUxMjIyHkCU3yfnz56dNm8bhcJhMppqaGvpjSPqcOXMiIyObm5vxZgcOHMAJZidMmEBmMXldDiWCIKQkj5Kyl+x5paSflIzXdjR6a3MIKQIFPyc0giBUGCUHo9Foiu7rVWGf6/r16zMyMpqbm5V/aKSUa6sq0I8uRxT8nMBzn7JRP3kUAFQDcQoAQHUQp5QHJ49qbW01MzPLzMxUdXMAGDVgnKfyjLrkUQBQBNxPAQCoDuIUAIDqIE4BAKgO4hQAgOre0n70uro6mKsIgFFD1QPiB0KKH7Pv5eWl6quuMlR7H0JehvrezI8//rhz587MzEwzMzN8ZdasWSO5wQcffKChoaGmpjZ16tT//Oc/8m7vm/X398fHxzs4OAwoF4lEMTExFhYWDAaDz+fb2NhUVVXhVT///LOjo6O6urqBgcGOHTu6u7sJgsjNzd2/f39fX5/sh6bg5+Qtfe57O98FU/VVp4o9e/YkJSWFhoaS2c/Gjx+flpZ28eJFcpuCgoKMjIxly5aVl5fb29sruYUVFRXvvvtuYGCgUCgcsMrb2/u77747ffq0UCi8f/++hYVFR0cHQqi8vNzZ2dnJyamxsTE7O/vbb7/dsGEDQsjV1ZXNZjs5OeE5zkaptzROAfmSS3ou5eT42r9//9mzZ9PT03k8HlmYlJSkpqbm5+dHhVxnv/76686dOzds2ICn4Zd09uzZnJycjIyMuXPn0ul0Q0PD3NxcW1tbhFBUVJSBgcHevXu5XK6Dg0NwcPDf/vY3nApky5Yt06dPX7p0aV9fnwrORx4gTgE5kEt6LiXk+Hr06FFYWNjevXvZbLZkuaOjY0BAwO+//759+3aFNkAW06dPz8rKWr16NYvFGrDq6NGj9vb2dnZ2A8r7+vouXry4aNEicirOJUuWEASRm5uLFyMiIkpKSkbvlNMQp8CfECNOzyUl/deQcnzl5+dramrGxMTI8eySkpIIgnB1dR28Kjo6etKkSd98883ly5dlvywpKSlcLpfD4eTm5i5ZskRTU9PY2PjMmTN4r/7+/vDw8IkTJ6qrq0+bNu3cuXMjabxIJLp169bgmyyE0OPHjzs6OiZOnEiWWFhYIIRKS0vxora29qJFixITE0fr479KO0xeASmlH/2t7Z9647UNDw9nMpmnTp1qaWkpLS21t7fX1dXFM1utXr1aX1+f3DIuLg4h1NjYSBCEp6cnTs+F+fn5cbnce/fudXd3l5eXz549m8fj1dbWDqmSCxcu8Hi8yMhIWU5Nxr+pubn51KlTBxRaWFjgruibN2+qqamZmpp2dHQQBJGXl+fm5vbGy7Jr1y6E0JUrV1pbWxsaGhYuXMjlckUiEUEQ27dvZ7FYmZmZL1++DA0NVVNTu3Pnjiyng82dO3f69OnkYlVVFUJoxowZixcvNjAwYLFY1tbWX3/9tVgsvnbtGkIoLi5Ocnd1dXUnJydyMSQkBCFUXFz8xuMq4Ts4VHA/Bf5LMqkXn8/H6bmampqOHz8+1Kpw+i8Wi4XTf7W3t6empg6pBhcXl7a2NjmmBevs7KyqqsI3Gq/k4OCwdevW6urqnTt3SpbLclkcHR01NTUFAoGPj09nZ2dtbW13d3dKSoqHh4enp6eWltbu3bsZDMZQL4Ik3F8uEAhiYmLKy8vr6+vd3d03b978/fff9/T0IITGjRsnuT2Dwejq6iIXraysEEJlZWXDboAKQZwC/6Wg9Fxk+q8RN3BEGhoaCILgcDhStomOjp48eXJycvKNGzfIwiFdFiaTiRDq7e19+PChUCjEndwIITxcYCQXAXdX2djYODo66ujo8Pn8vXv38vn848eP4+62Ad3kIpEITzaL4ROvr68fdgNUCOKUrHp6erZs2WJgYMDhcN5//309PT0ajXbs2DF51X/gwAFra2t1dXUul2ttbR0WFtbW1oZXRUZGTp06VVNTk8ViWVpa7tixA//XKneKS8+F03+NsJIR6u7uRn9821+HzWanpqbSaLS1a9eSNyPDuyydnZ0Iod27d9P+UFNTM3icgewMDQ0RQk1NTWQJk8k0MTGprKzEXX7kBwYhJBQKu7u78S4Yjln4Iow6EKdkdfjw4fz8/AcPHiQmJq5fv/7mzZvyrf/nn39et25dbW1tfX19VFTUgQMHyPGoV69e3bx5c3V1dVNTU2xsbGJiIp5mV+4UlJ6LTP81osaNGP6ivnE+VQcHh8DAwIqKiqioKFwyvMsiEAgQQgkJCZL9LCPJR62hoWFlZXXv3j3Jwr6+Pj6fb2ZmxuPxJBN8PHr0CCE0bdo0skQkEqE/LsKoA3FKVjk5ObNmzdLS0vryyy/lMqJ9wHAhJpO5adMmgUCgoaGxfPlyd3f3H3/88dmzZwghDQ0NPz8/HR0dHo+3YsUKDw+P/Pz8J0+ejLwNAygoPReZ/msklYwcvgWWZYRUVFSUtbV1cXExXhxSrjPShAkT2Gx2SUnJCJstydvbu7i4+PHjx3hRKBTW1NTY2dnR6fSlS5dev35dLBbjVXl5eTQaTfKXTXzi+vr6cmyP0kCcklVdXR2DwZBjhQOGC2VnZ0sO6jEyMkJ/dJ1euHBBsotUV1cXITSSJ4jXkWN6rlem/xpSJXl5efIdl8DhcMzNzevq6mS5DqmpqeQ1f2Ous9dV8vnnn585cyYlJaWtra2/v7+urg7/x+Pj46Ovr3/37t2hnkJgYKCJiYmvr29tbW1zc3NwcHBXVxfu9Q8LC6uvr9+zZ09nZ2dRUVFcXJyvr+/kyZPJffGJDx57NTqo5mfG10PUG5dQUFAg+SMRl8slCKKiogIhdPToUbyNWCw+fPiwtbU1k8nU0tJyc3O7f/8+XnX9+vUpU6bg3iVbW9v8/HyCILZs2YI7XBFCkj/Gk1xcXLS0tHp6egavcnNzU1dXf+Uq6WS5tnJJzyUl/ZfslVy6dInH40VHR8tyajL+Tf39/RkMhlAoxIvZ2dn4L6urq7t58+YBGwcFBZHjEl53WZKTk3H/tJWVVWVl5fHjx3FWRxMTk99++62npyc4OHjixIl0Ol0gEHh6epaXlxME4eHhgRAKDw9/ZSOLiormz59Pdi0ZGBg4Ojpeu3YNr33y5MnKlSu1tbVZLNacOXPy8vLIHa9duzZnzhwWi2VoaBgUFITf7yO5uLgYGRnhTJTSKeE7OFQQp2Slr6//2WefkYsD4pSU8TUZGRkREREvXrxobm6eN2/e+PHj8S4DhgthIpGorq7uyJEjLBaLTAgoqbOzk8fj+fv7D7X9hBI/f/gpVQkHIsn4N62oqKDT6a+8sMrU39+/cOHCkydPKu2ITU1NbDb70KFDsmxMwTgFz31yIH18jZeX1549e7S1tXV0dFxdXZubm6X88jVhwgRjY+OIiIiDBw96e3sP3iA2NtbQ0DA6OlqB5yMP1Ez/ZWlpGRkZGRkZqaAfTGXR39+fk5PT3t7u4+OjtINGRETMmDHD399faUeUL4hTcmjfBK4AACAASURBVCD7+BrcwyXlO/zkyZOGhobvv//+73//+//8z/8MeN8tOzs7PT39n//8p+Q7tGBIQkJCli9f7uPjo6pXjgsLC7OysvLy8qSP5JKj+Pj4kpKSS5cuybeDVZkgTsmB9PE1Fy9eXLx4sUAgYLFYO3bskF4Vg8EQCATOzs5nz54tLy+XzE9z9uzZ/fv3FxYWmpqayv8c5If66b9iYmL8/f337dunkqM7OTmdPn2afMlR0XJzc3t6egoLC7W1tZVzREWAOCUHUsbX1NbWenh4GBgY3L59u7W19cCBAzLWaWlpOW7cuPLycrx45MiRtLS0q1evvvPOO/JtvNzFxsbiPv6qqirKTkno7Oy8f/9+VbdCGdzc3EJCQga8UjPqQJySAynja8rKynp7ezdu3Ghubs5ms8lpNwZobm5etWqVZElFRUV/f/+ECRMIgggODi4rK8vJyRlwywbAWwLilBxIGV+Dp9q4fPlyd3d3RUWFZI+V5HAhJpNZUFBw9erVtra23t7e4uLizz77jMvlBgYG3rt37+DBgydOnGAwGDQJhw4dUt0ZA6BUEKferKamxt7evr6+/vTp0zNnzszKyoqPj1+wYAFCaPv27Z6engihPXv2xMbGRkZG6urqLlq0yNTUtLCwkMvl2tnZBQcHJycnGxoa7tq1a/HixQihBQsWPHnyZMOGDXp6elOnTl26dKlQKJw/f/4XX3xhZGTE4/GWL19uamp669YtW1tbYpROGASA/NCo9jWg0Wjnzp1bsWKF4g6BX47LyMhQ3CGoSQnXVlXe2r+pIlDwcwL3UwAAqoM4BQCgOohTAACqgzgFAKA6iFMAAKqDOAUAoDqIUwAAqoM4BQCgOrqqG/AKCQkJCh2wd+vWLfTHyMC3jaKvraq8zX/TtwHlxqPDR220u3XrlpWV1fjx41XdEDB8gYGBDg4Oqm7Ff1EuToHRjoJvXYDRDvqnAABUB3EKAEB1EKcAAFQHcQoAQHUQpwAAVAdxCgBAdRCnAABUB3EKAEB1EKcAAFQHcQoAQHUQpwAAVAdxCgBAdRCnAABUB3EKAEB1EKcAAFQHcQoAQHUQpwAAVAdxCgBAdRCnAABUB3EKAEB1EKcAAFQHcQoAQHUQpwAAVAdxCgBAdRCnAABUB3EKAEB1EKcAAFQHcQoAQHUQpwAAVAdxCgBAdRCnAABUB3EKAEB1EKcAAFRHIwhC1W0Ao9snn3xSUlJCLj558mT8+PEcDgcvMhiMH374wcjISEWtA2MBXdUNAKPe5MmT09LSJEtaW1vJf0+ZMgWCFBgheO4DI7Vq1SoajfbKVQwGw9fXV7nNAWMQPPcBOZg5c2ZJSYlYLB5QTqPRHj9+bGpqqopGgbED7qeAHHz66adqagM/SzQabe7cuRCkwMhBnAJysHLlysE3U2pqap9++qlK2gPGGIhTQA709PTefffdcePGDSj39PRUSXvAGANxCsjHJ598Irk4btw4JycnPT09VbUHjCUQp4B8eHl5SXZREQSxZs0aFbYHjCUQp4B8aGpqLlmyhE7//yPy6HS6m5ubapsExgyIU0Bu1qxZ09/fjxCi0+murq6ampqqbhEYIyBOAblZtmwZfl2mv79/9erVqm4OGDsgTgG5YbPZH3/8MUKIy+V++OGHqm4OGDso/X5fXV3dzZs3Vd0KMATGxsYIoVmzZp0/f17VbQFDMGHCBAcHB1W34vUICjt37pyqLw8AbwUvLy9Vf92lGQXPfYq+BAihc+fOKfooKuHl5aX8z19kZGRfX5+ij4L/D1P0Ud4SXl5eqv6Wv8EoiFNgdAkJCRk8MB2AkYA4BeSMHEIFgLxAnAIAUB3EKQAA1UGcAgBQHcQpAADVQZySgy+++ILH49FoNMm0KwAAeYE4JQfffPPNiRMnVN0KAMYsiFMAAKqDOCUfr0sMBQAYOYhTw0QQRFxc3OTJk1ksFp/PDwoKIlf19/eHh4dPnDhRXV192rRp+A2PlJQULpfL4XByc3OXLFmiqalpbGx85swZvMu1a9fmzJnD4XA0NTXt7Oza2tpeVw8AbyGIU8MUFhYWHBzs5+dXX1///PnznTt3kqt27tx58ODBhISEZ8+eLVu2bNWqVb/88svGjRu3bt3a1dXF4/HOnTtXWVlpbm6+bt263t7ezs5OV1dXLy+vFy9eVFRUTJo0SSQSva4e1Z0xACoDcWo4urq6EhIS3n///cDAQC0tLXV1dR0dHbyqu7s7JSXFw8PD09NTS0tr9+7dDAYjNTWV3NfR0VFTU1MgEPj4+HR2dtbW1lZXV7e1tdnY2LDZbH19/aysLF1d3TfWA8DbA+LUcDx69EgoFDo5OQ1e9fDhQ6FQaGtrixfV1dUNDAwePHgweEsmk4kQ6u3tNTc319PTW7NmTURERHV19VDrka9Lly7x+fwffvhB0QdSssuXL4eEhGRlZZmbm9NoNBqNNiBBjrOzM4/HGzdunI2Nzd27d5XfQrFYnJCQ4OjoOKC8t7c3NjbW0tKSyWRqaWnZ2tqSH5IbN27Mnz+fw+EYGhoGBwf39PQghM6fP3/gwAE8AfSYAXFqOOrq6hBCAoFg8KrOzk6E0O7du2l/qKmpEQqFUmpTV1e/evXqggULYmJizM3NfXx8urq6hlGPXBAEoehDKN+ePXuSkpJCQ0M9PT0fP35sYWExfvz4tLS0ixcvktsUFBRkZGQsW7asvLzc3t5eyS2sqKh49913AwMDB/+Jvb29v/vuu9OnTwuFwvv371tYWHR0dCCEysvLnZ2dnZycGhsbs7Ozv/322w0bNiCEXF1d2Wy2k5NTS0uLks9CcSBODQebzUYI4f++BsDBKyEhQXJ+n6KiIukV2tjY/PDDD0+fPg0ODj537tyhQ4eGV8/Iubi4tLa2Llu2TEH1d3V1Db5lUKj9+/efPXs2PT2dx+ORhUlJSWpqan5+fq2trcpszCv9+uuvO3fu3LBhw4wZMwasOnv2bE5OTkZGxty5c+l0uqGhYW5uLr7LjoqKMjAw2Lt3L5fLdXBwCA4O/tvf/obvuLds2TJ9+vSlS5f29fWp4HwUAOLUcNja2qqpqV27dm3wqgkTJrDZ7CENTH/69Om9e/cQQgKBYN++ffb29vfu3RtGPaPCyZMnGxoalHa4R48ehYWF7d27F//XQnJ0dAwICPj999+3b9+utMa8zvTp07OyslavXs1isQasOnr0qL29vZ2d3YDyvr6+ixcvLlq0iBwQs2TJEoIgcnNz8WJERERJSUliYqKiG68cEKeGQyAQeHl5ZWZmnjx5sq2trbS09Pjx43gVm83+/PPPz5w5k5KS0tbW1t/fX1dX9+zZMym1PX36dP369Q8ePBCJRMXFxTU1NfPmzRtGPSN348aNiRMn0mi0r7/+GkkdS5GUlMRms/X09NavX29oaMhmsx0dHW/fvo0Q8vf3ZzKZBgYGuM5NmzZxuVwajdbU1BQQELBt27bKykoajWZpaYkQys/P19TUjImJUdAZJSUlEQTh6uo6eFV0dPSkSZO++eaby5cvD15LEER8fPyUKVNYLJa2tra7uzu+VZE+vkS+Q0lEItGtW7cG32QhhB4/ftzR0TFx4kSyxMLCAiFUWlqKF7W1tRctWpSYmDhGHuSVNbXpcChnblk0rHmH29vb161bN378eA0NjQULFoSHhyOEjI2Nf/31156enuDg4IkTJ9LpdIFA4OnpWV5enpycjHNGWVlZVVZWHj9+HKe3MzEx+fHHHx0dHbW1tceNG/fOO+/s2rULz9v7ynqG1MhhzDv85MkThNCRI0fw4q5duxBCV65caW1tbWhoWLhwIZfLFYlEBEH4+flxudx79+51d3eXl5fPnj2bx+PV1tYSBLF69Wp9fX2yzri4OIRQY2MjQRCenp4WFhbkqgsXLvB4vMjIyCE1kpD5s2Fubj516tQBhRYWFlVVVQRB3Lx5U01NzdTUtKOjgyCIvLw8Nzc3vE14eDiTyTx16lRLS0tpaam9vb2uru7z58+lX5Pt27ezWKzMzMyXL1+GhoaqqanduXNH9pOaO3fu9OnTycWqqiqE0IwZMxYvXmxgYMBisaytrb/++muxWIzv5ePi4iR3V1dXd3JyIhdDQkIQQsXFxW88rkrmpx4SiFMwP/qfvDJOdXV14cXk5GSE0KNHjwiC8PPz4/P55I537txBCO3du5cYSpwaNlk+Gx0dHTQabdmyZQPKyThFEMS2bdsQQps3byYk4pRQKNTQ0PDx8SF3+fe//40QwvH0ddekq6uLw+GQewmFQhaLtXHjRtlPakCcKisrQwh98MEH//rXv5qbm1taWvAwvbS0tIKCAoRQfHy85O6ampqOjo7k4rfffosQ+u677954XOrHKXjuA0NAjqUYvGrWrFkcDkcJIydk19DQQBAEvo19nejo6MmTJycnJ9+4cYMsLC8v7+jomDVrFlkye/ZsJpOJH2wHIK+J3IeS4O4qGxsbR0dHHR0dPp+/d+9ePp9//Phx3N02oJtcJBKpq6uTi/jE6+vrh90A6oA4BeSGxWI1NjaquhX/1d3djf74tr8Om81OTU2l0Whr167t6urChfgXfQ0NDckttbS02tvbpVQl96EkhoaGCKGmpiayhMlkmpiYVFZW4u4//H4VJhQKu7u78S4Yjln4Iox2EKeAfPT29ra0tOA8oxSBv6hvHPHo4OAQGBhYUVERFRWFS7S0tBBCA6LSG89O7kNJNDQ0rKys8G/BpL6+Pj6fb2ZmxuPxampqyPJHjx4hhKZNm0aW4LevJO+wRi+IU0A+CgsLCYKYN28eQohOp7/y2VDJ9PT0aDSaLCOkoqKirK2ti4uL8aKtra2Ghobk25S3b98WiUQzZ86UUokihpJ4e3sXFxc/fvwYLwqFwpqaGjs7OzqdvnTp0uvXr4vFYrwqLy+PRqNJ/rKJT1xfX1+O7VEViFNg+MRi8cuXL/v6+kpLSwMCAiZOnOjr64sQsrS0fPHiRU5OTm9vb2Njo+R/+zo6Ok+fPq2urm5vb+/t7c3Ly1PcuAQOh2Nubo5fHpAOP/2RaQfZbPa2bduys7PT0tLa2trKyso2bNhgaGjo5+cnvZLXDSXx8fHR19cfxus4gYGBJiYmvr6+tbW1zc3NwcHBXV1duDc9LCysvr5+z549nZ2dRUVFcXFxvr6+kydPJvfFJz547NWopJrue9nA730jNNTfcY4cOYI7Pjgcjqurq5SxFL/99pufnx+DwTAyMqLT6Zqamu7u7pWVlbie5ubm9957j81mm5mZffXVV3jSG0tLy9ra2rt375qYmKirqy9YsOD58+eXLl3i8XjR0dFDPTUZPxv+/v4MBkMoFOLF7OxsPM5IV1cX/8YnKSgoiByXIBaL4+LirKysGAyGtra2h4fHw4cPCYKQfk1eN5TEw8MDIRQeHv7KRhYVFc2fP5/sWjIwMHB0dLx27Rpe++TJk5UrV2pra7NYrDlz5uTl5ZE74umAWCyWoaFhUFBQd3e3ZLUuLi5GRkZisfiNV4n6v/dBnII4NUx+fn46OjoKqvyNZPxsVFRU0On0U6dOKaFJUvT39y9cuPDkyZNKO2JTUxObzT506JAsG1M/TsFzHxg+6r+Ub2lpGRkZGRkZid/dVYn+/v6cnJz29nYfHx+lHTQiImLGjBn+/v5KO6JCQYpthBBKSEjIyMhQdSvk79atW7hj+20WEhLS0dHh4+Nz+vRpPp+v/AYUFhZmZWXl5eVJH8klR/Hx8SUlJZcuXWIwGMo5oqLB/RQYjtDQ0NTU1NbWVjMzs8zMTFU35w1iYmL8/f337dunkqM7OTmdPn2afOFR0XJzc3t6egoLC7W1tZVzRCWA+ymEENq6deuKFStU3Qr5W758uYJqjo2NjY2NVVDliuDs7Ozs7KzqViiDm5ubm5ubqlshZ3A/BQCgOohTAACqgzgFAKA6iFMAAKqDOAUAoLpRH6d8fHxoUl24cEGOh5NMrIQxmUw9Pb3FixfHxcW9fPlSjscCAGCjPk4hhAoKClpaWnp7e/E7n66uriKRqLOzs6GhYd26dfI9FplYCU9lKRaLGxoa0tPTzczMgoODbWxsIGUxAHI36uMUjUabP38+n8+n0+lkCYPB4HA4AoFA+kQccjm6lpbW4sWLU1NT09PT6+vrcV4phR4UgLfNqI9TZ86ckfI6gp+f30cffaSclnh5efn6+jY0NBw7dkw5RwTgLTHq4xSl4NmX8vLy0GtSJEnPqoSn6eBwOJqamnZ2dnhWWfmmWgJgNII4JU841RqefXHnzp0HDx5MSEh49uzZsmXLVq1a9csvv2zcuHHr1q1dXV08Hu/cuXOVlZXm5ubr1q3r7e3t7Ox0dXX18vJ68eJFRUXFpEmT8Lyxr6xHxecJgHJBnJInHo9Ho9Ha29u7u7tTUlI8PDw8PT21tLR2797NYDBSU1PJLR0dHTU1NQUCgY+PT2dnZ21tbXV1dVtbm42NDZvN1tfXz8rK0tXVfWM9ALwN4D1keers7CQIQlNTU/YUSWRWJXNzcz09vTVr1mzZssXX19fU1BQhNPJUS5mZmWRq77FnDJ+aknl5eam6CdJAnJKn3377DSFkbW1NpkjavXs3uVYyZ9Fg6urqV69e3blzZ0xMTGRk5IoVK1JTU4dRzwDz5s3bunXrUE+E+oqKihITE6G3Ti4SEhJU3YQ3gDglT/n5+QihJUuWkCmSAgICZN/dxsbmhx9+aGxsjI+P379/v42NDZ4Bcqj1SDI2Nh6TU9YghBITE8fqqSkZ9SeJhP4puXn+/HlCQoKxsfHatWuHkSLp6dOnOFObQCDYt2+fvb39vXv3FJFqCYBRB+LUMBEE0dHRgZN5NDY2njt3bv78+ePGjcvJydHU1JSSIul1nj59un79+gcPHohEouLi4pqamnnz5g2jHgDGINWmkZBO9nwzbW1t7777ro6ODkJITU3N0tIyJiZGxqOgoeSbOX/+/LRp0zgcDpPJVFNTQ38MSZ8zZ05kZGRzczO55StTJEnJqvTjjz86Ojpqa2uPGzfunXfe2bVrV19f3+vqkbG11M8jMmzKyUX0lqD+54RGEIQKo6R06enp3t7eim4hjUY7d+7cmOzpwPMOU7/3YRiU89l4S1D/cwLPfQAAqoM4BQCgOohTAACqgzgFAKA6iFMAAKqDOAUAoDqIUwAAqoM4BQCgOohTAACqgziFEELe3t7Sk2uNUpmZmaq+tBR1+fLlkJAQySxnn3zyieQGzs7OPB5v3LhxNjY2d+/eVVU7u7u7ra2tyVl9ent7w8PDzc3NmUymkZHR9u3bu7q6EELnz58/cOBAf3+/qtqpaDCvC0IIBQQEODg4qLoV8kf9eYVUYs+ePcXFxadPn+bxeJ6enpaWli0tLWlpaT4+Pi4uLnibgoKC/Pz8Y8eO5eTkqLCpu3btevjwIbkYEBDw7bffpqamuri4/Oc//3Fzc3v27Nnp06ddXV2rqqqcnJxycnK0tLRU2GAFgTiFEEIODg5j8v0+hb6x1dXV5eTkdPPmTZVXMiT79+8/e/bsr7/+ymazycKkpKRPPvnEz8+vvLycz+crrTHS3bx58//+7//IxcePHx87duyLL77As5ItXrzY398/Ojp69+7dU6ZM2bJly+PHj5cuXXr9+nUyR9yYAc99YJhOnjzZ0NBAhUpk9+jRo7CwsL1790oGKYSQo6NjQEDA77//vn37dqU1Rrqurq6goKDExESy5M6dO2KxeO7cuWTJhx9+iBD65z//iRcjIiJKSkokdxkzIE4BRBBEfHz8lClTWCyWtra2u7s7noLd39+fyWQaGBjgzTZt2sTlcmk0WlNTU0BAwLZt2yorK2k0mqWlZVJSEpvN1tPTW79+vaGhIZvNdnR0vH379pAqQQjl5+dramrGxMQo6EyTkpIIgnB1dR28Kjo6etKkSd98883ly5dlv0TSE52NJKfZrl27Nm3ahCeGxfA8Qurq6mSJlZUVQuj+/ft4UVtbe9GiRYmJiWNwGgkVzinzRsqZYwgNZf6p0UXGeYXCw8OZTOapU6daWlpKS0vt7e11dXWfP39OEMTq1av19fXJLePi4hBCjY2NBEF4enpaWFiQq/z8/Lhc7r1797q7u8vLy2fPns3j8Wpra4dUyYULF3g8XmRk5BvbPLzPhrm5+dSpUwcUWlhYVFVVEQRx8+ZNNTU1U1PTjo4OgiDy8vLc3NzwNlIu0a5duxBCV65caW1tbWhoWLhwIZfLFYlEBEFs376dxWJlZma+fPkyNDRUTU3tzp07srTzxo0brq6uBEE0NjYihHbt2kUQRGlpKUIoLCyM3Kyvrw8h5OHhQZaEhIQghIqLi4d0Wag//xTcT73turq64uPjP/744zVr1vD5fDs7u2PHjjU1NR0/fnyoVdHpdHzHMXXq1JSUlPb29qGm8HJxcWlrawsLCxvqoWXR2dlZVVVlYWHxug0cHBy2bt1aXV29c+dOyXJZLtHgRGfDzmnW1dUVEBCQkpIyoNzOzu7DDz9MTk6+evVqd3f38+fPs7OzaTRab28vuQ2+wyorK5PxmowWEKfeduXl5R0dHbNmzSJLZs+ezWQy8VPbsM2aNYvD4QwphZeiNTQ0EASB51N9nejo6MmTJycnJ9+4cYMsHNIlIhOdDTunWWho6JdffmlkZDR41dmzZ5cvX/7pp5/q6OjMnz//H//4B0EQ48ePJzfAZ1dfX//Go4wuEKdk1dPTs2XLFgMDAw6H8/777+vp6dFotGPHjsmr/gMHDlhbW6urq3O5XGtr67CwMJy3HSEUGRk5depUTU1NFotlaWm5Y8eOjo4OeR23paUFIaShoSFZqKWl1d7ePsKaWSwWfmyhiO7uboQQi8WSsg2bzU5NTaXRaGvXrsVDk9BwLxGZ04wczlZTUyMUCqU38saNG2VlZV988cUr1/L5/GPHjtXV1QmFwsrKysOHDyOE3nnnHXID3HuFz3QsgTglq8OHD+fn5z948CAxMXH9+vVy/yn9559/XrduXW1tbX19fVRU1IEDB8jUj1evXt28eXN1dXVTU1NsbGxiYiKeKFYu8HCbAV+5lpYWY2PjkVTb29s78krkC3+H3zgY0sHBITAwsKKiIioqCpcM7xKRudEk+1mKioqkH/3kyZNXrlxRU1PDoQ1XEhMTQ6PRfvnllwEb37lzByH03nvvkSUikQj9ua99bIA4JaucnJxZs2ZpaWl9+eWXckke29XV5ejoSC4ymUz8+46Ghsby5cvd3d1//PFHnFpGQ0PDz89PR0eHx+OtWLHCw8MjPz//yZMnI28DQsjW1lZDQ0PyO3D79m2RSDRz5kyEEJ1Ol+z+kF1hYSFBEPPmzRtJJfKFb4FbW1vfuGVUVJS1tXVxcTFelH6JXmd4Oc1SU1Ml45pkP7rkgyd24sQJMzOzRYsWkSX47P5fe/cXktYXBwD8SN6yxKHNZmJ/LBxso6AVjCCjRtTDhEy2KPZSD4NoNDfWP1qwRMr+rPUS0UNExGqUkRj0nwjZ0/ayxaSNTUZZMvYni4piZXp/DxdErK7a72pn7ft503s9957r9Yv3nO85RyQSBXRQ/EGc8pfNZiMIgsECvVKHDAaDZ1IP1TxBPd9NTk6GhYW5NwmFQoSQzycIP3E4nOrqaoPBMDQ0tLOzYzabKysrxWJxRUUFQkgmk21ubhqNRofD8fv3b6vV6v5gdHT09+/fV1dXd3d3qTDkcrm2traOjo4+fvz45MmThISE8vLygAqZmZkJXl5CVFRUcnKyzWbzuSf19Oe+5vSXiKaQ09Y0Ky0tFYlEZxiOc+vWLavVenR0tLq6WlNTs7Cw0N/fT7WIUajapaamBloy7kLWs3gGmOQlzM/Pe3YScblckiQtFgtCqLe3l9rH5XK9fPny2rVr4eHhfD5fqVR+/vyZ2vTmzZvr169TrUspKSmzs7MkST5+/Nh9e3l2zLspFAo+n39wcHB8k1KpjIyMPHGTFz/7m10u14sXL65evUoQhEAgUKlUX758oTbZ7fbbt29zOJykpKRHjx7V1tYihGQy2dra2vv37xMTEyMjI+Vy+Y8fPyoqKgiCkEgkbDb70qVLRUVF3759C7SQ6elpHo/X3Nzs85zPdm+o1WqCIPb396mXBoOB+maFQmFVVZXXzrW1te68hNMuEc1CZ1+/fj1tTTOVSoUQev78uc8T9vw/RZJkfn4+n89ns9kCgUChUBzPclAoFBKJhFpW0n/45yVAnPI3f0okEpWVlblfesUpmvyasbExjUazublpt9szMzMvX75MfcQrdYhyeHhos9m6u7sjIiJevXp1/DT29vZ4PJ5arfanaqG8/6gn09AcizzrvWGxWNhs9okXNpScTmd2dnZ/fz+zxW5sbHA4nM7OzkA/iH+cguc+BtDn19y7d6+pqUkgEERHRxcWFtrtdppesPj4+Li4OI1G09HRUVJScnwHnU4nFoubm5uDWJ+zwn+8vkwm02q1Wq2WwQ7TQDmdTqPRuLu7Sw3TY5BGo0lLS1Or1cwWiwOIUwzwP7+GauGi+T2vr6//+vXr9evXg4ODN2/e9Br7ZjAY9Hr93Nwcj8djtAb/kIaGhuLi4tLSUn8a1IPBZDKNj4/PzMzQZ3IFqqura2lpaXp6mtlWVExAnGIAfX7N1NRUbm5uTExMREREXV0dfVEEQcTExBQUFIyMjCwvL+t0OvemkZGRtrY2k8kklUqZr8P/8+zZs4GBge3t7aSkJPwnvWppaVGr1a2tredy9Ly8vOHhYfeAR0ZMTEwcHByYTCaBQMBgsfiAOMUAmvyatbU1lUoVGxv77t277e3t9vZ2P8uUyWRhYWHLy8vUy+7u7qGhocXFRc+kPnzodDqqXX9lZYWRpI1gKygoaGtrO++zYIxSqWxoaPDsFL5gIE4xgCa/xmw2OxyOhw8fJicnczgcFot1Ygl2u/3+/fue71gsFqfTGR8fJ1FkUQAAAYlJREFUT5JkfX292Ww2Go1ef9kA+EdAnGIATX5NQkICQmhhYeHPnz8Wi8WzxcozdSg8PHx+fn5xcXFnZ8fhcHz48KGsrIzL5T59+vTTp08dHR19fX0EQXjOKdzZ2Xl+NQYgpCBO+Wa1WtPT03/+/Dk8PJyRkTE+Pt7V1SWXyxFCNTU1d+/eRQg1NTXpdDqtVisUCnNycqRSqclk4nK5qamp9fX1PT09YrG4sbExNzcXISSXy9fX1ysrK69cuXLjxo07d+7s7+9nZWU9ePBAIpHweLzi4mKpVPr27duUlBTy4s0lBECAWDj/DPR6fUlJSbDPkMVijY6OXsh5h6lhgEGdffi8hObe+Efgf5/A/ykAAO4gTgEAcAdxCgCAO4hTAADcQZwCAOAO4hQAAHcQpwAAuIM4BQDA3V+wDr1erw/2IXzOrv+XomahDcEFDD3qK7uQVQs9m82G1YobJzjPSfp8CWidawDAmWE+nyfW42YAAABB+xQAAH8QpwAAuIM4BQDAHcQpAADu/gN8PFRMsDrgPAAAAABJRU5ErkJggg==;" vertex="1" parent="1">
          <mxGeometry x="215" y="230" width="397" height="669" as="geometry" />
        </mxCell>
        <mxCell id="fpGeL_W6awyr53Q22owi-4" style="edgeStyle=orthogonalEdgeStyle;rounded=0;orthogonalLoop=1;jettySize=auto;html=1;fontColor=#FFFFFF;strokeColor=#000000;strokeWidth=2;endArrow=block;endFill=1;" edge="1" parent="1" source="fpGeL_W6awyr53Q22owi-3" target="fpGeL_W6awyr53Q22owi-1">
          <mxGeometry relative="1" as="geometry" />
        </mxCell>
        <mxCell id="fpGeL_W6awyr53Q22owi-3" value="&lt;div style=&quot;font-size: 20px;&quot;&gt;TextVectorization&lt;/div&gt;" style="rounded=0;whiteSpace=wrap;html=1;fillColor=none;strokeColor=#000000;fontFamily=Times New Roman;fontSize=20;fontColor=#000000;labelBackgroundColor=none;labelBorderColor=none;textShadow=0;" vertex="1" parent="1">
          <mxGeometry x="289" y="120" width="250" height="50" as="geometry" />
        </mxCell>
        <mxCell id="fpGeL_W6awyr53Q22owi-6" style="edgeStyle=orthogonalEdgeStyle;rounded=0;orthogonalLoop=1;jettySize=auto;html=1;entryX=0.5;entryY=0;entryDx=0;entryDy=0;strokeColor=#000000;endArrow=block;endFill=1;strokeWidth=2;" edge="1" parent="1" source="fpGeL_W6awyr53Q22owi-5" target="fpGeL_W6awyr53Q22owi-3">
          <mxGeometry relative="1" as="geometry" />
        </mxCell>
        <mxCell id="fpGeL_W6awyr53Q22owi-5" value="Sõna" style="rounded=0;whiteSpace=wrap;html=1;fillColor=none;strokeColor=#000000;fontFamily=Times New Roman;fontSize=20;fontColor=#000000;labelBackgroundColor=none;labelBorderColor=none;textShadow=0;" vertex="1" parent="1">
          <mxGeometry x="309" y="20" width="210" height="40" as="geometry" />
        </mxCell>
        <mxCell id="fpGeL_W6awyr53Q22owi-7" value="Tõenäosuste jadad" style="rounded=0;whiteSpace=wrap;html=1;fillColor=none;strokeColor=#000000;fontFamily=Times New Roman;fontSize=20;fontColor=#000000;labelBackgroundColor=none;labelBorderColor=none;textShadow=0;" vertex="1" parent="1">
          <mxGeometry x="289" y="960" width="250" height="50" as="geometry" />
        </mxCell>
        <mxCell id="fpGeL_W6awyr53Q22owi-9" value="Muuttüüp" style="rounded=0;whiteSpace=wrap;html=1;fillColor=none;strokeColor=#000000;fontFamily=Times New Roman;fontSize=20;fontColor=#000000;labelBackgroundColor=none;labelBorderColor=none;textShadow=0;" vertex="1" parent="1">
          <mxGeometry x="310" y="1080" width="209" height="50" as="geometry" />
        </mxCell>
        <mxCell id="fpGeL_W6awyr53Q22owi-11" style="edgeStyle=orthogonalEdgeStyle;rounded=0;orthogonalLoop=1;jettySize=auto;html=1;entryX=0.5;entryY=0;entryDx=0;entryDy=0;strokeWidth=2;strokeColor=#000000;endArrow=block;endFill=1;" edge="1" parent="1" target="fpGeL_W6awyr53Q22owi-9">
          <mxGeometry relative="1" as="geometry">
            <mxPoint x="414" y="1010" as="sourcePoint" />
            <mxPoint x="414" y="1071" as="targetPoint" />
          </mxGeometry>
        </mxCell>
        <mxCell id="fpGeL_W6awyr53Q22owi-13" value="&lt;font style=&quot;font-size: 15px;&quot; face=&quot;Times New Roman&quot;&gt;TextVectorization saab sisendina sõna&lt;/font&gt;" style="text;html=1;align=center;verticalAlign=middle;whiteSpace=wrap;rounded=0;fontColor=#000000;fillColor=none;fontSize=15;strokeColor=#000000;" vertex="1" parent="1">
          <mxGeometry x="446" y="70" width="190" height="40" as="geometry" />
        </mxCell>
        <mxCell id="fpGeL_W6awyr53Q22owi-17" value="&lt;font style=&quot;font-size: 15px;&quot; face=&quot;Times New Roman&quot;&gt;TextVectorization teisendab sõna tähejadaks ja tähejada omakorda täisarvude jadaks&lt;/font&gt;" style="text;html=1;align=center;verticalAlign=middle;whiteSpace=wrap;rounded=0;fontColor=#000000;fillColor=none;fontSize=15;strokeColor=#000000;" vertex="1" parent="1">
          <mxGeometry x="89" y="118" width="183" height="55" as="geometry" />
        </mxCell>
        <mxCell id="fpGeL_W6awyr53Q22owi-28" value="&lt;font style=&quot;font-size: 15px;&quot; face=&quot;Times New Roman&quot;&gt;Tõenäosuste jadast võetakse kõige suurema tõenäosusega sõnale vastav muuttüüp&lt;br style=&quot;font-size: 15px;&quot;&gt;&lt;/font&gt;" style="text;html=1;align=center;verticalAlign=middle;whiteSpace=wrap;rounded=0;fontColor=#000000;fillColor=none;fontSize=15;strokeColor=#000000;" vertex="1" parent="1">
          <mxGeometry x="429" y="1019" width="190" height="52" as="geometry" />
        </mxCell>
        <mxCell id="fpGeL_W6awyr53Q22owi-21" value="&lt;font style=&quot;font-size: 15px;&quot; face=&quot;Times New Roman&quot;&gt;Mudelis esinev täisarvuline jada, mis oli sisendina ette antud&lt;br style=&quot;font-size: 15px;&quot;&gt;&lt;/font&gt;" style="text;html=1;align=center;verticalAlign=middle;whiteSpace=wrap;rounded=0;fontColor=#000000;fillColor=none;fontSize=15;strokeColor=#000000;" vertex="1" parent="1">
          <mxGeometry x="5" y="260" width="210" height="50" as="geometry" />
        </mxCell>
        <mxCell id="fpGeL_W6awyr53Q22owi-22" value="&lt;font style=&quot;font-size: 15px;&quot; face=&quot;Times New Roman&quot;&gt;Suuremate mõõtmetega täisarvuline jada teisendatakse väiksemate mõõtmetega ujukomaarvuliseks jadaks&lt;br style=&quot;font-size: 15px;&quot;&gt;&lt;/font&gt;" style="text;html=1;align=center;verticalAlign=middle;whiteSpace=wrap;rounded=0;fontColor=#000000;fillColor=none;fontSize=15;strokeColor=#000000;" vertex="1" parent="1">
          <mxGeometry x="5" y="383" width="210" height="75" as="geometry" />
        </mxCell>
        <mxCell id="fpGeL_W6awyr53Q22owi-23" value="&lt;font style=&quot;font-size: 15px;&quot; face=&quot;Times New Roman&quot;&gt;Õpitakse tuvastama seoseid ujukomaarvuliste jadadena esitatud sõna  ja kahendarvu jadana esitatud muuttüüpide vahel&lt;br style=&quot;font-size: 15px;&quot;&gt;&lt;/font&gt;" style="text;html=1;align=center;verticalAlign=middle;whiteSpace=wrap;rounded=0;fontColor=#000000;fillColor=none;fontSize=15;strokeColor=#000000;" vertex="1" parent="1">
          <mxGeometry x="3" y="525.75" width="210" height="78.25" as="geometry" />
        </mxCell>
        <mxCell id="fpGeL_W6awyr53Q22owi-24" value="&lt;font style=&quot;font-size: 15px;&quot; face=&quot;Times New Roman&quot;&gt;Eemaldatakse osa infost, et mudel ei ülesobituks ja oskaks üldisemalt ennustada muuttüüpi&lt;br style=&quot;font-size: 15px;&quot;&gt;&lt;/font&gt;" style="text;html=1;align=center;verticalAlign=middle;whiteSpace=wrap;rounded=0;fontColor=#000000;fillColor=none;fontSize=15;strokeColor=#000000;" vertex="1" parent="1">
          <mxGeometry x="3" y="679" width="210" height="59.5" as="geometry" />
        </mxCell>
        <mxCell id="fpGeL_W6awyr53Q22owi-25" value="&lt;font style=&quot;font-size: 15px;&quot; face=&quot;Times New Roman&quot;&gt;Järele jäänud info tihendatakse kokku ning arvutatakse igale muuttüübile tõenäosus, et sõna vastab just sellele muuttüübile&lt;br style=&quot;font-size: 15px;&quot;&gt;&lt;/font&gt;" style="text;html=1;align=center;verticalAlign=middle;whiteSpace=wrap;rounded=0;fontColor=#000000;fillColor=none;fontSize=15;strokeColor=#000000;" vertex="1" parent="1">
          <mxGeometry x="3" y="806" width="210" height="79.5" as="geometry" />
        </mxCell>
        <mxCell id="fpGeL_W6awyr53Q22owi-19" value="&lt;font style=&quot;font-size: 15px;&quot; face=&quot;Times New Roman&quot;&gt;Mudel väljastab muuttüüpide tõenäosuste jada&lt;br style=&quot;font-size: 15px;&quot;&gt;&lt;/font&gt;" style="text;html=1;align=center;verticalAlign=middle;whiteSpace=wrap;rounded=0;fontColor=#000000;fillColor=none;fontSize=15;strokeColor=#000000;" vertex="1" parent="1">
          <mxGeometry x="429" y="904" width="190" height="40" as="geometry" />
        </mxCell>
      </root>
    </mxGraphModel>
  </diagram>
</mxfile>
